<?xml version="1.0" encoding="utf-8"?>
<!-- Generator: Adobe Illustrator 15.0.0, SVG Export Plug-In  -->
<!DOCTYPE svg PUBLIC "-//W3C//DTD SVG 1.1//EN" "http://www.w3.org/Graphics/SVG/1.1/DTD/svg11.dtd" [
	<!ENTITY ns_flows "http://ns.adobe.com/Flows/1.0/">
]>
<svg version="1.1"
	 xmlns="http://www.w3.org/2000/svg" xmlns:xlink="http://www.w3.org/1999/xlink" xmlns:a="http://ns.adobe.com/AdobeSVGViewerExtensions/3.0/"
	 x="0px" y="0px" width="100px" height="120px" viewBox="-32.472 -8.351 100 120"
	 overflow="visible" enable-background="new -32.472 -8.351 100 120" xml:space="preserve">
<defs>
</defs>
<g>
	<path fill="#F65857" d="M23.717,34.067c0,3.3-2.7,6-6,6h-0.376c-3.3,0-6-2.7-6-6V10.003c0-3.3,2.7-6,6-6h0.376c3.3,0,6,2.7,6,6
		V34.067z"/>
</g>
<g>
	<path fill="#F65857" d="M3.528,27.067c-3.3,0-4.502-2.246-2.672-4.992L14.2,2.06c1.831-2.746,4.826-2.746,6.656,0L34.2,22.075
		c1.83,2.746,0.628,4.992-2.672,4.992H3.528z"/>
</g>
<g>
	<path fill="#F72B2B" d="M23.717,95.567c0,3.3-2.7,6-6,6h-0.376c-3.3,0-6-2.7-6-6V71.503c0-3.3,2.7-6,6-6h0.376c3.3,0,6,2.7,6,6
		V95.567z"/>
</g>
<g>
	<path fill="#F72B2B" d="M3.528,88.567c-3.3,0-4.502-2.246-2.672-4.992L14.2,63.56c1.831-2.746,4.826-2.746,6.656,0L34.2,83.575
		c1.83,2.746,0.628,4.992-2.672,4.992H3.528z"/>
</g>
<g>
	<path fill="#F65857" d="M23.717,90.567c0,3.3-2.7,6-6,6h-0.376c-3.3,0-6-2.7-6-6V66.503c0-3.3,2.7-6,6-6h0.376c3.3,0,6,2.7,6,6
		V90.567z"/>
</g>
<g>
	<path fill="#F65857" d="M3.528,83.567c-3.3,0-4.502-2.246-2.672-4.992L14.2,58.56c1.83-2.746,4.826-2.746,6.656,0L34.2,78.575
		c1.83,2.746,0.628,4.992-2.672,4.992H3.528z"/>
</g>
</svg>
