<?xml version="1.0" encoding="utf-8"?>
<!-- Generator: Adobe Illustrator 15.0.0, SVG Export Plug-In . SVG Version: 6.00 Build 0)  -->
<!DOCTYPE svg PUBLIC "-//W3C//DTD SVG 1.1//EN" "http://www.w3.org/Graphics/SVG/1.1/DTD/svg11.dtd">
<svg version="1.1" id="Layer_1" xmlns="http://www.w3.org/2000/svg" xmlns:xlink="http://www.w3.org/1999/xlink" x="0px" y="0px"
	 width="483px" height="166px" viewBox="-3.5 0 483 166" enable-background="new -3.5 0 483 166" xml:space="preserve">
<g>
	<path fill="#FFE7B0" d="M435,130.02c0,5.5-4.5,10-10,10H49.228c-5.5,0-12.976,0-16.614,0c-3.638,0-6.614-4.5-6.614-10V73.933
		c0-5.5,4.5-10,10-10h3.213c5.5,0,10.849-4.419,11.887-9.82l2.167-11.275c1.038-5.401,6.288-9.82,11.667-9.82
		s9.639-4.498,9.468-9.995l-0.377-12.028C73.854,5.498,78.213,1,83.713,1H425c5.5,0,10,4.5,10,10V130.02z"/>
</g>
<g>
	<path fill="#FFF6C7" d="M440.394,135.27c0,5.5-4.5,10-10,10h-389c-5.5,0-10-4.5-10-10V79.183c0-5.5,4.5-10,10-10h3.213
		c5.5,0,10.85-4.419,11.887-9.82l2.167-11.275c1.038-5.401,6.288-9.82,11.667-9.82s9.639-4.498,9.467-9.995L79.42,16.246
		c-0.172-5.498,4.188-9.995,9.688-9.995h341.287c5.5,0,10,4.5,10,10L440.394,135.27L440.394,135.27z"/>
</g>
<g>
	<path fill="#ED8629" d="M166.879,63.157c0,5.5-4.5,10-10,10h-30.887c-5.5,0-10-4.5-10-10V53.42c0-5.5,4.5-10,10-10h30.887
		c5.5,0,10,4.5,10,10V63.157z"/>
</g>
<g>
	<path fill="#ED8629" d="M220.945,63.157c0,5.5-4.5,10-10,10H180.06c-5.5,0-10-4.5-10-10V53.42c0-5.5,4.5-10,10-10h30.885
		c5.5,0,10,4.5,10,10V63.157L220.945,63.157z"/>
</g>
<g>
	<path fill="#ED8629" d="M275.014,63.157c0,5.5-4.5,10-10,10h-30.888c-5.5,0-10-4.5-10-10V53.42c0-5.5,4.5-10,10-10h30.888
		c5.5,0,10,4.5,10,10V63.157z"/>
</g>
<g>
	<path fill="#ED8629" d="M329.079,63.157c0,5.5-4.5,10-10,10h-30.886c-5.5,0-10-4.5-10-10V53.42c0-5.5,4.5-10,10-10h30.886
		c5.5,0,10,4.5,10,10V63.157z"/>
</g>
<g>
	<path fill="#ED8629" d="M383.146,63.157c0,5.5-4.5,10-10,10H342.26c-5.5,0-10-4.5-10-10V53.42c0-5.5,4.5-10,10-10h30.888
		c5.5,0,10,4.5,10,10L383.146,63.157L383.146,63.157z"/>
</g>
<g>
	<path fill="#ED8629" d="M437.213,63.157c0,5.5-4.5,10-10,10h-30.886c-5.5,0-10-4.5-10-10V53.42c0-5.5,4.5-10,10-10h30.886
		c5.5,0,10,4.5,10,10V63.157z"/>
</g>
<g>
	<path fill="#ED8629" d="M140.163,29.704c0,5.5-4.5,10-10,10H99.277c-5.5,0-10-4.5-10-10v-9.736c0-5.5,4.5-10,10-10h30.886
		c5.5,0,10,4.5,10,10V29.704z"/>
</g>
<g>
	<path fill="#ED8629" d="M194.23,29.704c0,5.5-4.5,10-10,10h-30.887c-5.5,0-10-4.5-10-10v-9.736c0-5.5,4.5-10,10-10h30.887
		c5.5,0,10,4.5,10,10V29.704z"/>
</g>
<g>
	<path fill="#ED8629" d="M248.297,29.704c0,5.5-4.5,10-10,10h-30.886c-5.5,0-10-4.5-10-10v-9.736c0-5.5,4.5-10,10-10h30.886
		c5.5,0,10,4.5,10,10V29.704z"/>
</g>
<g>
	<path fill="#ED8629" d="M302.364,29.704c0,5.5-4.5,10-10,10h-30.888c-5.5,0-10-4.5-10-10v-9.736c0-5.5,4.5-10,10-10h30.888
		c5.5,0,10,4.5,10,10V29.704z"/>
</g>
<g>
	<path fill="#ED8629" d="M356.431,29.704c0,5.5-4.5,10-10,10h-30.887c-5.5,0-10-4.5-10-10v-9.736c0-5.5,4.5-10,10-10h30.887
		c5.5,0,10,4.5,10,10V29.704z"/>
</g>
<g>
	<path fill="#ED8629" d="M410.498,29.704c0,5.5-4.5,10-10,10h-30.887c-5.5,0-10-4.5-10-10v-9.736c0-5.5,4.5-10,10-10h30.887
		c5.5,0,10,4.5,10,10V29.704z"/>
</g>
<g>
	<path fill="#ED8629" d="M85.351,63.157c0,5.5-4.5,10-10,10H71.82c-5.5,0-10-4.5-10-10V53.42c0-5.5,4.5-10,10-10h3.531
		c5.5,0,10,4.5,10,10V63.157z"/>
</g>
<g>
	<path fill="#ED8629" d="M112.809,63.157c0,5.5-4.5,10-10,10h-3.531c-5.5,0-10-4.5-10-10V53.42c0-5.5,4.5-10,10-10h3.531
		c5.5,0,10,4.5,10,10V63.157z"/>
</g>
<g>
	<path fill="#ED8629" d="M437.213,96.611c0,5.5-4.5,10-10,10h-3.531c-5.5,0-10-4.5-10-10v-9.736c0-5.5,4.5-10,10-10h3.531
		c5.5,0,10,4.5,10,10V96.611z"/>
</g>
<g>
	<path fill="#ED8629" d="M437.213,29.704c0,5.5-4.5,10-10,10h-3.531c-5.5,0-10-4.5-10-10v-9.736c0-5.5,4.5-10,10-10h3.531
		c5.5,0,10,4.5,10,10V29.704z"/>
</g>
<g>
	<path fill="#ED8629" d="M85.99,96.566c0,5.5-4.5,10-10,10H45.104c-5.5,0-10-4.5-10-10V86.83c0-5.5,4.5-10,10-10H75.99
		c5.5,0,10,4.5,10,10V96.566z"/>
</g>
<g>
	<path fill="#ED8629" d="M112.705,130.02c0,5.5-4.5,10-10,10H71.819c-5.5,0-10-4.5-10-10v-9.736c0-5.5,4.5-10,10-10h30.886
		c5.5,0,10,4.5,10,10V130.02z"/>
</g>
<g>
	<path fill="#ED8629" d="M166.772,130.02c0,5.5-4.5,10-10,10h-30.886c-5.5,0-10-4.5-10-10v-9.736c0-5.5,4.5-10,10-10h30.887
		c5.5,0,10,4.5,10,10L166.772,130.02L166.772,130.02z"/>
</g>
<g>
	<path fill="#ED8629" d="M220.839,130.02c0,5.5-4.5,10-10,10h-30.886c-5.5,0-10-4.5-10-10v-9.736c0-5.5,4.5-10,10-10h30.886
		c5.5,0,10,4.5,10,10V130.02z"/>
</g>
<g>
	<path fill="#ED8629" d="M274.906,130.02c0,5.5-4.5,10-10,10H234.02c-5.5,0-10-4.5-10-10v-9.736c0-5.5,4.5-10,10-10h30.888
		c5.5,0,10,4.5,10,10L274.906,130.02L274.906,130.02z"/>
</g>
<g>
	<path fill="#ED8629" d="M328.973,130.02c0,5.5-4.5,10-10,10h-30.886c-5.5,0-10-4.5-10-10v-9.736c0-5.5,4.5-10,10-10h30.886
		c5.5,0,10,4.5,10,10V130.02z"/>
</g>
<g>
	<path fill="#ED8629" d="M383.04,130.02c0,5.5-4.5,10-10,10h-30.887c-5.5,0-10-4.5-10-10v-9.736c0-5.5,4.5-10,10-10h30.887
		c5.5,0,10,4.5,10,10V130.02z"/>
</g>
<g>
	<path fill="#ED8629" d="M437.106,130.02c0,5.5-4.5,10-10,10H396.22c-5.5,0-10-4.5-10-10v-9.736c0-5.5,4.5-10,10-10h30.887
		c5.5,0,10,4.5,10,10V130.02z"/>
</g>
<g>
	<path fill="#ED8629" d="M140.057,96.566c0,5.5-4.5,10-10,10H99.171c-5.5,0-10-4.5-10-10V86.83c0-5.5,4.5-10,10-10h30.886
		c5.5,0,10,4.5,10,10V96.566z"/>
</g>
<g>
	<path fill="#ED8629" d="M194.124,96.566c0,5.5-4.5,10-10,10h-30.887c-5.5,0-10-4.5-10-10V86.83c0-5.5,4.5-10,10-10h30.887
		c5.5,0,10,4.5,10,10V96.566z"/>
</g>
<g>
	<path fill="#ED8629" d="M248.189,96.566c0,5.5-4.5,10-10,10h-30.885c-5.5,0-10-4.5-10-10V86.83c0-5.5,4.5-10,10-10h30.885
		c5.5,0,10,4.5,10,10V96.566z"/>
</g>
<g>
	<path fill="#ED8629" d="M302.258,96.566c0,5.5-4.5,10-10,10h-30.887c-5.5,0-10-4.5-10-10V86.83c0-5.5,4.5-10,10-10h30.887
		c5.5,0,10,4.5,10,10V96.566z"/>
</g>
<g>
	<path fill="#ED8629" d="M356.324,96.566c0,5.5-4.5,10-10,10h-30.887c-5.5,0-10-4.5-10-10V86.83c0-5.5,4.5-10,10-10h30.887
		c5.5,0,10,4.5,10,10V96.566z"/>
</g>
<g>
	<path fill="#ED8629" d="M410.392,96.566c0,5.5-4.5,10-10,10h-30.887c-5.5,0-10-4.5-10-10V86.83c0-5.5,4.5-10,10-10h30.887
		c5.5,0,10,4.5,10,10V96.566z"/>
</g>
<g>
	<path fill="#ED8629" d="M58.639,130.02c0,5.5-4.5,10-10,10h-3.531c-5.5,0-10-4.5-10-10v-9.736c0-5.5,4.5-10,10-10h3.531
		c5.5,0,10,4.5,10,10V130.02z"/>
</g>
<g>
	<path fill="#ED8629" d="M437.106,96.566c0,5.5-4.5,10-10,10h-3.531c-5.5,0-10-4.5-10-10V86.83c0-5.5,4.5-10,10-10h3.531
		c5.5,0,10,4.5,10,10V96.566z"/>
</g>
<path opacity="0.9" fill="#C845FF" d="M143.788,74.369c-0.945-2.139-1.459-4.183-2.54-6.317c-1.211-2.394-2.164-4.819-3.448-7.264
	c-1.32-2.518-3.646-4.899-4.592-7.4c-0.161-0.428-0.402-0.597-0.291-1.097c0.103,0.05,0.182,0.177,0.29,0.213
	c0.914-0.6,2.347-0.632,3.371-1.445c1.223-0.971,1.78-1.565,3.312-1.976c1.792-0.477,2.216-0.643,1.85-2.41
	c-0.298-1.442-1.633-3.185-1.695-4.629c-1.791-0.598-2.257,0.89-3.54,1.504c-1.407,0.673-3.117,0.992-4.622,1.519
	c-2.485,0.87-5.887,3.319-8.76,2.851c0.163-2.426,0.716-5.839,2.351-7.61c0.935-1.013,1.618-1.58,2.063-2.897
	c0.479-1.411,0.632-3.001,0.954-4.489c0.624-2.872,2.31-5.418,3.327-8.228c0.407-1.128,0.792-2.157,0.812-3.494
	c0.022-1.603-0.736-1.709-2.413-1.714c-1.147-0.002-3.484-0.121-4.221,0.801c-0.355,0.444-0.144,1.195-0.297,1.722
	c-0.184,0.636-0.55,1.348-0.825,2.014c-1.171,2.842-1.062,6.227-2.205,8.98c-2.106,5.07-4.68,9.973-6.359,15.049
	c-0.496,1.499-0.896,3.044-1.467,4.348c-0.924-0.624-0.814-2.245-1.03-3.129c-0.25-1.026-0.672-1.934-0.849-2.977
	c-0.423-2.483-0.986-5.179-1.596-7.628c-0.342-1.37-0.535-2.85-0.783-4.242c-0.229-1.287-0.89-2.379-1.216-3.593
	c-0.733-2.73-0.396-5.623-1.095-8.322c-0.315-1.222-0.505-2.664-0.883-3.898c-0.272-0.894-0.955-1.787-1.102-2.733
	c-2.106-0.621-5.72-1.664-6.848,0.545c-1.122,2.193-0.581,5.992-0.872,8.419c-0.346,2.909-1.185,5.271-2.107,7.805
	c-0.925,2.534-1.176,5.353-1.5,8.125c-0.656,5.619-2.286,10.849-2.948,16.526c-0.363,3.1-0.724,6.199-1.085,9.299
	c-0.291,2.477-0.91,5.1-0.421,7.562c0.14,0.061,0.259,0.044,0.402,0.087l0.313-0.208c1.912,1.368,5.185,0.998,5.938-0.975
	c0.955-2.504,0.217-5.592,0.521-8.191c0.151-1.292,0.154-2.708,0.448-3.967c0.116-0.497,0.322-2.775,0.703-3.184
	c0.497-0.531,2.445-0.543,3.262-0.661c1.177-0.171,2.487-0.103,3.667-0.312c1.17-0.205,2.299-0.609,3.697-0.426
	c1.004,0.132,0.477-0.201,1.131,0.538c0.336,0.38,0.677,1.029,0.782,1.478c0.495,2.137,0.759,4.479,1.299,6.612
	c0.579,2.285,1.011,4.735,1.514,6.993c0.19,0.858,0.183,2.505,0.626,3.348c0.58,1.102,2.209,1.021,3.436,0.57
	c0.82-0.305,2.397-0.726,2.891-1.229c0.831-0.848,0.041-1.9-0.108-2.842c-0.345-2.184,0.306-4.901,0.292-7.081
	c-0.018-2.418,0.124-5.239,0.414-7.56c0.27-2.173,3.768-1.974,5.629-2.292c0.328,1.336,1.629,1.824,2.272,2.86
	c0.634,1.023,0.609,2.227,1.04,3.188c0.89,1.982,1.242,4.636,2.544,6.612c1.528,2.32,2.092,4.649,3.523,7.012
	c0.826,1.364,1.544,2.678,2.364,4.061c0.977,1.65,2.041,1.836,4.055,2.085c1.083,0.134,2.294,0.226,3.179-0.021
	C146.716,78.831,144.531,76.054,143.788,74.369z M108.054,49.626c-0.537,0.682-2.052,0.806-3.045,0.92
	c-1.778,0.203-3.208,0.575-5.05,0.2c-0.148-1.542,0.648-3.43,0.833-5.015c0.252-2.167,0.464-4.346,0.613-6.501
	c0.274-3.913,1.348-8.007,1.392-11.919l0.015-0.127c0.44-0.535,1.139,1.73,1.213,2.391c0.153,1.375,0.541,2.525,0.785,3.916
	c0.463,2.643,1.339,5.596,2.16,8.296c0.43,1.413,0.895,2.699,0.924,4.158C107.917,47.051,108.731,48.762,108.054,49.626z"/>
<path fill="#C845FF" d="M135.106,24.021c-2.062-0.054-2.457,3.137-0.317,3.248c1.665,0.087,1.873-1.649,1.273-2.956
	c-0.415-0.028-0.809-0.277-1.206-0.292"/>
<path fill="#C845FF" d="M112.856,20.521c-0.46,0.541-0.669,1.037-0.406,1.712c0.408,0.122,1.207,0.123,1.618,0
	c0.26-1.064-0.214-0.995-0.962-1.212"/>
<path fill="#C845FF" d="M136.106,56.271c-0.105,0.412-0.007,1.041,0.031,1.463c0.251,0.092,0.923,0.27,1.16,0.282
	c0.197-0.397,0.258-0.729,0.283-1.165c-0.33-0.05-1.402-0.014-1.225-0.08"/>
<path fill="#C845FF" d="M138.356,31.771c0.064,0.212-0.022,0.484,0.024,0.711c1.096,0.094,1.453-0.127,1.438-1.174
	c-0.533-0.152-0.769,0.05-1.212,0.212"/>
<path fill="#C845FF" d="M139.356,21.771c-0.428,0.474-0.676,0.964-0.462,1.712c1.028-0.022,0.903-0.024,1.249-0.981
	c-0.304-0.174-0.676-0.352-1.037-0.481"/>
<path fill="#C845FF" d="M128.356,18.271c0.155,0.153,0.323,0.112,0.293,0.457c1.004-0.214,1.006-0.27,0.919-1.418
	c-0.855-0.244-0.707,0.2-0.962,0.711"/>
<path fill="#C845FF" d="M139.106,50.521c-0.248,1.236,0.021,2.934,1.456,2.656c0.714-1.355,0.155-2.54-1.456-2.406"/>
<path fill="#C845FF" d="M128.606,30.271c-0.295,0.132-0.516,0.101-0.766,0.357c0.773,0.775,2.166,1.484,3.208,1.873
	c1.336-2.259-1.895-3.792-2.942-1.98"/>
<path fill="#C845FF" d="M137.106,81.021c0,1.403-0.032,2.829,0.038,4.218c0.329,0.034,0.611,0.016,0.937-0.007
	c-0.379-1.235-0.186-2.62-0.27-3.917c-0.323-0.124-0.617-0.223-0.955-0.294"/>
<path fill="#C845FF" d="M118.356,75.521c0,2.943,0.122,5.85,0.287,8.711c0.086-0.012,0.599-0.018,0.676,0
	c0.292-2.714-0.213-5.861-0.213-8.711"/>
<path fill="#C845FF" d="M97.106,75.021c0.041,0.71-0.986,6.551,0.7,5.705c1.056-0.53,0.55-3.639,0.55-4.705"/>
<path fill="#C845FF" d="M98.106,62.021c-2.062-0.054-2.457,3.137-0.317,3.248c1.665,0.087,1.873-1.649,1.273-2.956
	c-0.415-0.028-0.809-0.277-1.206-0.292"/>
<path fill="#C845FF" d="M75.856,58.521c-0.46,0.541-0.669,1.037-0.406,1.712c0.408,0.122,1.207,0.123,1.618,0
	c0.26-1.064-0.214-0.995-0.962-1.212"/>
<path fill="#C845FF" d="M101.356,69.771c0.064,0.212-0.022,0.484,0.024,0.711c1.096,0.094,1.453-0.127,1.438-1.174
	c-0.533-0.152-0.769,0.05-1.212,0.212"/>
<path fill="#C845FF" d="M91.356,56.271c0.155,0.153,0.323,0.112,0.293,0.457c1.004-0.214,1.006-0.27,0.919-1.418
	c-0.855-0.244-0.707,0.2-0.962,0.711"/>
<path fill="#C845FF" d="M102.106,88.521c-0.248,1.235,0.021,2.934,1.456,2.655c0.714-1.354,0.155-2.54-1.456-2.405"/>
<path fill="#39FF97" d="M16.793,146.177l27.577,0.043c0,0,1.889-4.996-4.746-6.519c0,0-0.299-3.34-4.938-3.34
	c0,0-6.086-4.937-11.739-1.095c0,0-4.634,0.693-4.358,2.664c0,0-6.594-0.211-7.765,3.748c0,0-5.135,1.861-2.863,4.555
	L16.793,146.177z"/>
<path fill="#39FF97" d="M165.798,146.177l84.843,0.044c0,0,5.812-4.996-14.6-6.519c0,0-0.922-3.341-15.193-3.341
	c0,0-18.727-4.936-36.117-1.096c0,0-14.258,0.693-13.41,2.666c0,0-20.288-0.211-23.888,3.748c0,0-15.798,1.861-8.81,4.553
	L165.798,146.177z"/>
<path fill="#39FF97" d="M357.311,155.639l112.466,0.254c0,0,7.704-30.128-19.354-39.307c0,0-1.223-20.141-20.141-20.141
	c0,0-24.822-29.764-47.873-6.6c0,0-18.9,4.178-17.775,16.072c0,0-26.893-1.272-31.665,22.604c0,0-20.941,11.223-11.679,27.461
	L357.311,155.639z"/>
</svg>
