<?xml version="1.0" encoding="utf-8"?>
<!-- Generator: Adobe Illustrator 15.0.0, SVG Export Plug-In  -->
<!DOCTYPE svg PUBLIC "-//W3C//DTD SVG 1.1//EN" "http://www.w3.org/Graphics/SVG/1.1/DTD/svg11.dtd" [
	<!ENTITY ns_flows "http://ns.adobe.com/Flows/1.0/">
]>
<svg version="1.1"
	 xmlns="http://www.w3.org/2000/svg" xmlns:xlink="http://www.w3.org/1999/xlink" xmlns:a="http://ns.adobe.com/AdobeSVGViewerExtensions/3.0/"
	 x="0px" y="0px" width="414px" height="166px" viewBox="0 0 414 166" overflow="visible" enable-background="new 0 0 414 166"
	 xml:space="preserve">
<defs>
</defs>
<g>
	<path fill="#FFE7B0" d="M409,129.019c0,5.5-4.5,10-10,10H23.228c-5.5,0-12.976,0-16.614,0s-6.614-4.5-6.614-10V72.933
		c0-5.5,4.5-10,10-10h3.213c5.5,0,10.849-4.419,11.887-9.82l2.167-11.275c1.038-5.401,6.288-9.82,11.667-9.82
		s9.639-4.498,9.468-9.995L48.025,9.995C47.854,4.498,52.213,0,57.713,0H399c5.5,0,10,4.5,10,10V129.019z"/>
</g>
<g>
	<path fill="#FFF6C7" d="M414.394,134.269c0,5.5-4.5,10-10,10h-389c-5.5,0-10-4.5-10-10V78.183c0-5.5,4.5-10,10-10h3.213
		c5.5,0,10.85-4.419,11.887-9.82l2.167-11.275c1.038-5.401,6.288-9.82,11.667-9.82s9.639-4.498,9.467-9.995l-0.375-12.027
		c-0.172-5.498,4.188-9.995,9.688-9.995h341.287c5.5,0,10,4.5,10,10V134.269z"/>
</g>
<g>
	<path fill="#ED8629" d="M140.879,62.157c0,5.5-4.5,10-10,10H99.992c-5.5,0-10-4.5-10-10V52.42c0-5.5,4.5-10,10-10h30.887
		c5.5,0,10,4.5,10,10V62.157z"/>
</g>
<g>
	<path fill="#ED8629" d="M194.945,62.157c0,5.5-4.5,10-10,10H154.06c-5.5,0-10-4.5-10-10V52.42c0-5.5,4.5-10,10-10h30.886
		c5.5,0,10,4.5,10,10V62.157z"/>
</g>
<g>
	<path fill="#ED8629" d="M249.013,62.157c0,5.5-4.5,10-10,10h-30.887c-5.5,0-10-4.5-10-10V52.42c0-5.5,4.5-10,10-10h30.887
		c5.5,0,10,4.5,10,10V62.157z"/>
</g>
<g>
	<path fill="#ED8629" d="M303.079,62.157c0,5.5-4.5,10-10,10h-30.886c-5.5,0-10-4.5-10-10V52.42c0-5.5,4.5-10,10-10h30.886
		c5.5,0,10,4.5,10,10V62.157z"/>
</g>
<g>
	<path fill="#ED8629" d="M357.146,62.157c0,5.5-4.5,10-10,10H316.26c-5.5,0-10-4.5-10-10V52.42c0-5.5,4.5-10,10-10h30.887
		c5.5,0,10,4.5,10,10V62.157z"/>
</g>
<g>
	<path fill="#ED8629" d="M411.213,62.157c0,5.5-4.5,10-10,10h-30.886c-5.5,0-10-4.5-10-10V52.42c0-5.5,4.5-10,10-10h30.886
		c5.5,0,10,4.5,10,10V62.157z"/>
</g>
<g>
	<path fill="#ED8629" d="M114.163,28.704c0,5.5-4.5,10-10,10H73.277c-5.5,0-10-4.5-10-10v-9.736c0-5.5,4.5-10,10-10h30.886
		c5.5,0,10,4.5,10,10V28.704z"/>
</g>
<g>
	<path fill="#ED8629" d="M168.23,28.704c0,5.5-4.5,10-10,10h-30.887c-5.5,0-10-4.5-10-10v-9.736c0-5.5,4.5-10,10-10h30.887
		c5.5,0,10,4.5,10,10V28.704z"/>
</g>
<g>
	<path fill="#ED8629" d="M222.297,28.704c0,5.5-4.5,10-10,10h-30.886c-5.5,0-10-4.5-10-10v-9.736c0-5.5,4.5-10,10-10h30.886
		c5.5,0,10,4.5,10,10V28.704z"/>
</g>
<g>
	<path fill="#ED8629" d="M276.364,28.704c0,5.5-4.5,10-10,10h-30.887c-5.5,0-10-4.5-10-10v-9.736c0-5.5,4.5-10,10-10h30.887
		c5.5,0,10,4.5,10,10V28.704z"/>
</g>
<g>
	<path fill="#ED8629" d="M330.431,28.704c0,5.5-4.5,10-10,10h-30.887c-5.5,0-10-4.5-10-10v-9.736c0-5.5,4.5-10,10-10h30.887
		c5.5,0,10,4.5,10,10V28.704z"/>
</g>
<g>
	<path fill="#ED8629" d="M384.498,28.704c0,5.5-4.5,10-10,10h-30.887c-5.5,0-10-4.5-10-10v-9.736c0-5.5,4.5-10,10-10h30.887
		c5.5,0,10,4.5,10,10V28.704z"/>
</g>
<g>
	<path fill="#ED8629" d="M59.351,62.157c0,5.5-4.5,10-10,10h-3.531c-5.5,0-10-4.5-10-10V52.42c0-5.5,4.5-10,10-10h3.531
		c5.5,0,10,4.5,10,10V62.157z"/>
</g>
<g>
	<path fill="#ED8629" d="M86.809,62.157c0,5.5-4.5,10-10,10h-3.531c-5.5,0-10-4.5-10-10V52.42c0-5.5,4.5-10,10-10h3.531
		c5.5,0,10,4.5,10,10V62.157z"/>
</g>
<g>
	<path fill="#ED8629" d="M411.213,95.611c0,5.5-4.5,10-10,10h-3.531c-5.5,0-10-4.5-10-10v-9.736c0-5.5,4.5-10,10-10h3.531
		c5.5,0,10,4.5,10,10V95.611z"/>
</g>
<g>
	<path fill="#ED8629" d="M411.213,28.704c0,5.5-4.5,10-10,10h-3.531c-5.5,0-10-4.5-10-10v-9.736c0-5.5,4.5-10,10-10h3.531
		c5.5,0,10,4.5,10,10V28.704z"/>
</g>
<g>
	<path fill="#ED8629" d="M59.99,95.566c0,5.5-4.5,10-10,10H19.104c-5.5,0-10-4.5-10-10V85.83c0-5.5,4.5-10,10-10H49.99
		c5.5,0,10,4.5,10,10V95.566z"/>
</g>
<g>
	<path fill="#ED8629" d="M86.705,129.019c0,5.5-4.5,10-10,10H45.819c-5.5,0-10-4.5-10-10v-9.736c0-5.5,4.5-10,10-10h30.886
		c5.5,0,10,4.5,10,10V129.019z"/>
</g>
<g>
	<path fill="#ED8629" d="M140.772,129.019c0,5.5-4.5,10-10,10H99.886c-5.5,0-10-4.5-10-10v-9.736c0-5.5,4.5-10,10-10h30.887
		c5.5,0,10,4.5,10,10V129.019z"/>
</g>
<g>
	<path fill="#ED8629" d="M194.839,129.019c0,5.5-4.5,10-10,10h-30.886c-5.5,0-10-4.5-10-10v-9.736c0-5.5,4.5-10,10-10h30.886
		c5.5,0,10,4.5,10,10V129.019z"/>
</g>
<g>
	<path fill="#ED8629" d="M248.906,129.019c0,5.5-4.5,10-10,10H208.02c-5.5,0-10-4.5-10-10v-9.736c0-5.5,4.5-10,10-10h30.887
		c5.5,0,10,4.5,10,10V129.019z"/>
</g>
<g>
	<path fill="#ED8629" d="M302.973,129.019c0,5.5-4.5,10-10,10h-30.886c-5.5,0-10-4.5-10-10v-9.736c0-5.5,4.5-10,10-10h30.886
		c5.5,0,10,4.5,10,10V129.019z"/>
</g>
<g>
	<path fill="#ED8629" d="M357.04,129.019c0,5.5-4.5,10-10,10h-30.887c-5.5,0-10-4.5-10-10v-9.736c0-5.5,4.5-10,10-10h30.887
		c5.5,0,10,4.5,10,10V129.019z"/>
</g>
<g>
	<path fill="#ED8629" d="M411.106,129.019c0,5.5-4.5,10-10,10h-30.886c-5.5,0-10-4.5-10-10v-9.736c0-5.5,4.5-10,10-10h30.886
		c5.5,0,10,4.5,10,10V129.019z"/>
</g>
<g>
	<path fill="#ED8629" d="M114.057,95.566c0,5.5-4.5,10-10,10H73.171c-5.5,0-10-4.5-10-10V85.83c0-5.5,4.5-10,10-10h30.886
		c5.5,0,10,4.5,10,10V95.566z"/>
</g>
<g>
	<path fill="#ED8629" d="M168.124,95.566c0,5.5-4.5,10-10,10h-30.887c-5.5,0-10-4.5-10-10V85.83c0-5.5,4.5-10,10-10h30.887
		c5.5,0,10,4.5,10,10V95.566z"/>
</g>
<g>
	<path fill="#ED8629" d="M222.19,95.566c0,5.5-4.5,10-10,10h-30.886c-5.5,0-10-4.5-10-10V85.83c0-5.5,4.5-10,10-10h30.886
		c5.5,0,10,4.5,10,10V95.566z"/>
</g>
<g>
	<path fill="#ED8629" d="M276.258,95.566c0,5.5-4.5,10-10,10h-30.887c-5.5,0-10-4.5-10-10V85.83c0-5.5,4.5-10,10-10h30.887
		c5.5,0,10,4.5,10,10V95.566z"/>
</g>
<g>
	<path fill="#ED8629" d="M330.324,95.566c0,5.5-4.5,10-10,10h-30.887c-5.5,0-10-4.5-10-10V85.83c0-5.5,4.5-10,10-10h30.887
		c5.5,0,10,4.5,10,10V95.566z"/>
</g>
<g>
	<path fill="#ED8629" d="M384.392,95.566c0,5.5-4.5,10-10,10h-30.887c-5.5,0-10-4.5-10-10V85.83c0-5.5,4.5-10,10-10h30.887
		c5.5,0,10,4.5,10,10V95.566z"/>
</g>
<g>
	<path fill="#ED8629" d="M32.639,129.019c0,5.5-4.5,10-10,10h-3.531c-5.5,0-10-4.5-10-10v-9.736c0-5.5,4.5-10,10-10h3.531
		c5.5,0,10,4.5,10,10V129.019z"/>
</g>
<g>
	<path fill="#ED8629" d="M411.106,95.566c0,5.5-4.5,10-10,10h-3.531c-5.5,0-10-4.5-10-10V85.83c0-5.5,4.5-10,10-10h3.531
		c5.5,0,10,4.5,10,10V95.566z"/>
</g>
<path fill="#C845FF" d="M117.788,73.369c-0.945-2.139-1.459-4.183-2.54-6.317c-1.211-2.394-2.164-4.819-3.448-7.264
	c-1.32-2.518-3.646-4.899-4.592-7.4c-0.161-0.428-0.402-0.597-0.291-1.097c0.103,0.05,0.182,0.177,0.29,0.213
	c0.914-0.6,2.347-0.632,3.371-1.445c1.223-0.971,1.78-1.565,3.312-1.976c1.792-0.477,2.216-0.643,1.85-2.41
	c-0.298-1.442-1.633-3.185-1.695-4.629c-1.791-0.598-2.257,0.89-3.54,1.504c-1.407,0.673-3.117,0.992-4.622,1.519
	c-2.485,0.87-5.887,3.319-8.76,2.851c0.163-2.426,0.716-5.839,2.351-7.61c0.935-1.013,1.618-1.58,2.063-2.897
	c0.479-1.411,0.632-3.001,0.954-4.489c0.624-2.872,2.31-5.418,3.327-8.228c0.407-1.128,0.792-2.157,0.812-3.494
	c0.022-1.603-0.736-1.709-2.413-1.714c-1.147-0.002-3.484-0.121-4.221,0.801c-0.355,0.444-0.144,1.195-0.297,1.722
	c-0.184,0.636-0.55,1.348-0.825,2.014c-1.171,2.842-1.062,6.227-2.205,8.98c-2.106,5.07-4.68,9.973-6.359,15.049
	c-0.496,1.499-0.896,3.044-1.467,4.348c-0.924-0.624-0.814-2.245-1.03-3.129c-0.25-1.026-0.672-1.934-0.849-2.977
	c-0.423-2.483-0.986-5.179-1.596-7.628c-0.342-1.37-0.535-2.85-0.783-4.242c-0.229-1.287-0.89-2.379-1.216-3.593
	c-0.733-2.73-0.396-5.623-1.095-8.322c-0.315-1.222-0.505-2.664-0.883-3.898c-0.272-0.894-0.955-1.787-1.102-2.733
	c-2.106-0.621-5.72-1.664-6.848,0.545c-1.122,2.193-0.581,5.992-0.872,8.419c-0.346,2.909-1.185,5.271-2.107,7.805
	c-0.925,2.534-1.176,5.353-1.5,8.125c-0.656,5.619-2.286,10.849-2.948,16.526c-0.363,3.1-0.724,6.199-1.085,9.299
	c-0.291,2.477-0.91,5.1-0.421,7.562c0.14,0.061,0.259,0.044,0.402,0.087l0.313-0.208c1.912,1.368,5.185,0.998,5.938-0.975
	c0.955-2.504,0.217-5.592,0.521-8.191c0.151-1.292,0.154-2.708,0.448-3.967c0.116-0.497,0.322-2.775,0.703-3.184
	c0.497-0.531,2.445-0.543,3.262-0.661c1.177-0.171,2.487-0.103,3.667-0.312c1.17-0.205,2.299-0.609,3.697-0.426
	c1.004,0.132,0.477-0.201,1.131,0.538c0.336,0.38,0.677,1.029,0.782,1.478c0.495,2.137,0.759,4.479,1.299,6.612
	c0.579,2.285,1.011,4.735,1.514,6.993c0.19,0.858,0.183,2.505,0.626,3.348c0.58,1.102,2.209,1.021,3.436,0.57
	c0.82-0.305,2.397-0.726,2.891-1.229c0.831-0.848,0.041-1.9-0.108-2.842c-0.345-2.184,0.306-4.901,0.292-7.081
	c-0.018-2.418,0.124-5.239,0.414-7.56c0.27-2.173,3.768-1.974,5.629-2.292c0.328,1.336,1.629,1.824,2.272,2.86
	c0.634,1.023,0.609,2.227,1.04,3.188c0.89,1.982,1.242,4.636,2.544,6.612c1.528,2.32,2.092,4.649,3.523,7.012
	c0.826,1.364,1.544,2.678,2.364,4.061c0.977,1.65,2.041,1.836,4.055,2.085c1.083,0.134,2.294,0.226,3.179-0.021
	C120.716,77.831,118.531,75.054,117.788,73.369z M82.054,48.626c-0.537,0.682-2.052,0.806-3.045,0.92
	c-1.778,0.203-3.208,0.575-5.05,0.2c-0.148-1.542,0.648-3.43,0.833-5.015c0.252-2.167,0.464-4.346,0.613-6.501
	c0.274-3.913,1.348-8.007,1.392-11.919l0.015-0.127c0.44-0.535,1.139,1.73,1.213,2.391c0.153,1.375,0.541,2.525,0.785,3.916
	c0.463,2.643,1.339,5.596,2.16,8.296c0.43,1.413,0.895,2.699,0.924,4.158C81.917,46.051,82.731,47.762,82.054,48.626z"/>
<path fill="#C845FF" d="M109.106,23.021c-2.062-0.054-2.457,3.137-0.317,3.248c1.665,0.087,1.873-1.649,1.273-2.956
	c-0.415-0.028-0.809-0.277-1.206-0.292"/>
<path fill="#C845FF" d="M86.856,19.521c-0.46,0.541-0.669,1.037-0.406,1.712c0.408,0.122,1.207,0.123,1.618,0
	c0.26-1.064-0.214-0.995-0.962-1.212"/>
<path fill="#C845FF" d="M110.106,55.271c-0.105,0.412-0.007,1.041,0.031,1.463c0.251,0.092,0.923,0.27,1.16,0.282
	c0.197-0.397,0.258-0.729,0.283-1.165c-0.33-0.05-1.402-0.014-1.225-0.08"/>
<path fill="#C845FF" d="M112.356,30.771c0.064,0.212-0.022,0.484,0.024,0.711c1.096,0.094,1.453-0.127,1.438-1.174
	c-0.533-0.152-0.769,0.05-1.212,0.212"/>
<path fill="#C845FF" d="M113.356,20.771c-0.428,0.474-0.676,0.964-0.462,1.712c1.028-0.022,0.903-0.024,1.249-0.981
	c-0.304-0.174-0.676-0.352-1.037-0.481"/>
<path fill="#C845FF" d="M102.356,17.271c0.155,0.153,0.323,0.112,0.293,0.457c1.004-0.214,1.006-0.27,0.919-1.418
	c-0.855-0.244-0.707,0.2-0.962,0.711"/>
<path fill="#C845FF" d="M113.106,49.521c-0.248,1.236,0.021,2.934,1.456,2.656c0.714-1.355,0.155-2.54-1.456-2.406"/>
<path fill="#C845FF" d="M102.606,29.271c-0.295,0.132-0.516,0.101-0.766,0.357c0.773,0.775,2.166,1.484,3.208,1.873
	c1.336-2.259-1.895-3.792-2.942-1.98"/>
<path fill="#C845FF" d="M111.106,80.021c0,1.403-0.032,2.828,0.038,4.218c0.329,0.034,0.611,0.016,0.937-0.006
	c-0.379-1.236-0.186-2.62-0.27-3.918c-0.323-0.124-0.617-0.223-0.955-0.294"/>
<path fill="#C845FF" d="M92.356,74.521c0,2.943,0.122,5.85,0.287,8.711c0.086-0.012,0.599-0.017,0.676,0
	c0.292-2.714-0.213-5.861-0.213-8.711"/>
<path fill="#C845FF" d="M71.106,74.021c0.041,0.71-0.986,6.551,0.7,5.705c1.056-0.53,0.55-3.639,0.55-4.705"/>
<path fill="#C845FF" d="M72.106,61.021c-2.062-0.054-2.457,3.137-0.317,3.248c1.665,0.087,1.873-1.649,1.273-2.956
	c-0.415-0.028-0.809-0.277-1.206-0.292"/>
<path fill="#C845FF" d="M49.856,57.521c-0.46,0.541-0.669,1.037-0.406,1.712c0.408,0.122,1.207,0.123,1.618,0
	c0.26-1.064-0.214-0.995-0.962-1.212"/>
<path fill="#C845FF" d="M75.356,68.771c0.064,0.212-0.022,0.484,0.024,0.711c1.096,0.094,1.453-0.127,1.438-1.174
	c-0.533-0.152-0.769,0.05-1.212,0.212"/>
<path fill="#C845FF" d="M65.356,55.271c0.155,0.153,0.323,0.112,0.293,0.457c1.004-0.214,1.006-0.27,0.919-1.418
	c-0.855-0.244-0.707,0.2-0.962,0.711"/>
<path fill="#C845FF" d="M76.106,87.521c-0.248,1.236,0.021,2.934,1.456,2.656c0.714-1.355,0.155-2.54-1.456-2.406"/>
<path fill="#39FF97" d="M31.321,148.484l84.843,0.043c0,0,5.812-4.996-14.6-6.518c0,0-0.922-3.34-15.194-3.34
	c0,0-18.726-4.936-36.116-1.095c0,0-14.258,0.693-13.41,2.665c0,0-20.288-0.211-23.888,3.748c0,0-15.798,1.861-8.81,4.554
	L31.321,148.484z"/>
<path fill="#39FF97" d="M139.798,145.177l84.843,0.043c0,0,5.812-4.996-14.6-6.518c0,0-0.922-3.34-15.194-3.34
	c0,0-18.726-4.936-36.116-1.096c0,0-14.258,0.693-13.41,2.666c0,0-20.288-0.211-23.888,3.748c0,0-15.798,1.861-8.81,4.553
	L139.798,145.177z"/>
<ellipse fill="#C845FF" cx="207.265" cy="104.887" rx="13.713" ry="12.685"/>
<rect x="193.552" y="107.972" fill="#CE71FF" width="27.427" height="45.255"/>
<rect x="196.523" y="107.287" fill="none" stroke="#C845FF" stroke-miterlimit="10" width="4.571" height="47.998"/>
<path fill="#CCCCCC" d="M223.265,105.458c0,1.389-0.992,2.514-2.216,2.514h-27.796c-1.223,0-2.215-1.125-2.215-2.514l0,0
	c0-1.389,0.992-2.514,2.215-2.514h27.796C222.272,102.945,223.265,104.07,223.265,105.458L223.265,105.458z"/>
<path fill="#CCCCCC" d="M223.265,155.742c0,1.388-0.992,2.514-2.216,2.514h-27.796c-1.223,0-2.215-1.126-2.215-2.514l0,0
	c0-1.389,0.992-2.515,2.215-2.515h27.796C222.272,153.227,223.265,154.353,223.265,155.742L223.265,155.742z"/>
<rect x="202.694" y="90.145" fill="#CCCCCC" width="8.685" height="2.743"/>
<rect x="204.065" y="86.488" fill="#CCCCCC" width="5.942" height="3.657"/>
<circle fill="#FFF6C7" cx="206.884" cy="88.468" r="1.295"/>
<ellipse fill="#FFF6C7" cx="212.75" cy="97.516" rx="2.286" ry="2.114"/>
<path fill="#C845FF" d="M220.979,114.042c-1.76-1.957-3.854-3.098-6.105-3.098c-6.222,0-11.265,8.68-11.265,19.389
	s5.043,19.39,11.265,19.39c2.251,0,4.346-1.142,6.105-3.099V114.042z"/>
<rect x="173.667" y="144.085" fill="#C845FF" width="27.427" height="18.284"/>
<ellipse fill="#FFF6C7" cx="196.523" cy="148.256" rx="2.285" ry="2.114"/>
<path fill="#39FF97" d="M260.311,165.822l112.465,0.254c0,0,7.704-30.128-19.353-39.306c0,0-1.223-20.141-20.141-20.141
	c0,0-24.822-29.764-47.873-6.6c0,0-18.9,4.178-17.775,16.072c0,0-26.893-1.272-31.665,22.604c0,0-20.941,11.223-11.679,27.461
	L260.311,165.822z"/>
</svg>
