<?xml version="1.0" encoding="utf-8"?>
<!-- Generator: Adobe Illustrator 15.0.0, SVG Export Plug-In  -->
<!DOCTYPE svg PUBLIC "-//W3C//DTD SVG 1.1//EN" "http://www.w3.org/Graphics/SVG/1.1/DTD/svg11.dtd" [
	<!ENTITY ns_flows "http://ns.adobe.com/Flows/1.0/">
]>
<svg version="1.1"
	 xmlns="http://www.w3.org/2000/svg" xmlns:xlink="http://www.w3.org/1999/xlink" xmlns:a="http://ns.adobe.com/AdobeSVGViewerExtensions/3.0/"
	 x="0px" y="0px" width="152px" height="75px" viewBox="25.322 56.517 152 75"
	 overflow="visible" enable-background="new 25.322 56.517 152 75" xml:space="preserve">
<defs>
</defs>
<path display="none" fill="#FF4343" d="M201.051,101.5c1.252-7.679,0-30.002,0-30.002c-1.466-18.006-7.046-30.217-16.737-36.639
	c-6.209-4.188-15.582-6.281-28.127-6.281h-17.043c-7.807,0-13.869-1.186-18.189-3.559c-7.879-4.327-12.479-12.666-13.801-25.02
	h-12.04c-1.256,12.284-5.967,20.623-14.132,25.02c-4.466,2.373-10.433,3.559-17.899,3.559H41.518
	c-14.098,0-24.077,4.066-29.938,12.195C5.716,48.904,2.124,59.145,0.797,71.498c0,0-1.793,13.552,0,30.002
	c1.326,12.354,4.919,22.594,10.782,30.725c5.861,8.129,15.841,12.195,29.938,12.195h21.564c7.467,0,13.434,1.186,17.899,3.559
	c8.165,4.396,12.876,12.735,14.132,25.02h12.04c1.321-12.354,5.922-20.692,13.8-25.02c4.32-2.373,10.384-3.559,18.19-3.559h17.043
	c12.545,0,21.918-2.094,28.127-6.281C194.005,131.717,199.585,119.506,201.051,101.5z"/>
<path display="none" fill="#F65857" d="M202.241,71.498c-1.48-18.006-7.117-30.09-16.906-36.512
	c-6.271-4.188-15.739-6.154-28.41-6.154h-11.573c5.128,1,9.375,2.59,12.724,4.826c10.025,6.577,15.797,19.018,17.312,37.458
	c0,0,1.296,22.829,0,30.692c-1.516,18.44-7.287,31.136-17.312,37.712c-3.527,2.355-8.049,4.312-13.551,5.312h12.4
	c12.671,0,22.139-2.3,28.41-6.487c9.789-6.422,15.426-18.735,16.906-36.741C203.506,93.924,202.241,71.498,202.241,71.498z"/>
<ellipse display="none" fill="#FFFFFF" cx="184.084" cy="52.552" rx="8.582" ry="9.983"/>
<path fill="#39FF97" d="M63.707,131.133l112.465,0.254c0,0,7.704-30.128-19.353-39.306c0,0-1.223-20.141-20.141-20.141
	c0,0-24.822-29.764-47.874-6.6c0,0-18.899,4.178-17.775,16.072c0,0-26.893-1.272-31.665,22.604c0,0-20.941,11.223-11.679,27.461
	L63.707,131.133z"/>
</svg>
