<?xml version="1.0" encoding="utf-8"?>
<!-- Generator: Adobe Illustrator 15.0.0, SVG Export Plug-In  -->
<!DOCTYPE svg PUBLIC "-//W3C//DTD SVG 1.1//EN" "http://www.w3.org/Graphics/SVG/1.1/DTD/svg11.dtd" [
	<!ENTITY ns_flows "http://ns.adobe.com/Flows/1.0/">
]>
<svg version="1.1"
	 xmlns="http://www.w3.org/2000/svg" xmlns:xlink="http://www.w3.org/1999/xlink" xmlns:a="http://ns.adobe.com/AdobeSVGViewerExtensions/3.0/"
	 x="0px" y="0px" width="741px" height="447px" viewBox="-31.313 -9.216 741 447"
	 overflow="visible" enable-background="new -31.313 -9.216 741 447" xml:space="preserve">
<defs>
</defs>
<g>
	<path fill="#71EBFF" d="M524.187,313.354c0,5.5-4.5,10-10,10h-45.142c-5.5,0-10-4.5-10-10v-56.424c0-5.5,4.5-10,10-10h45.142
		c5.5,0,10,4.5,10,10V313.354z"/>
</g>
<g>
	<path fill="#71EBFF" d="M165.833,328.143c0,5.5-4.5,10-10,10h-29.815c-5.5,0-10-4.5-10-10V154.664c0-5.5,4.5-10,10-10h29.815
		c5.5,0,10,4.5,10,10V328.143z"/>
</g>
<polygon fill="#71EBFF" points="444.616,322.57 404.616,322.57 414.616,108.19 429.616,108.19 "/>
<rect x="116.019" y="293.789" fill="#71EBFF" width="195.889" height="44.354"/>
<rect x="303.478" y="261.719" fill="#71EBFF" width="65.142" height="76.424"/>
<g>
	<path fill="#71EBFF" d="M390.845,328.143c0,5.5-4.5,10-10,10H367.89c-5.5,0-10-4.5-10-10V200.755c0-5.5,4.5-10,10-10h12.955
		c5.5,0,10,4.5,10,10V328.143z"/>
</g>
<g>
	<path fill="#71EBFF" d="M331.833,328.143c0,5.5-4.5,10-10,10h-29.815c-5.5,0-10-4.5-10-10V155.037c0-5.5,4.5-10,10-10h29.815
		c5.5,0,10,4.5,10,10V328.143z"/>
</g>
<rect x="374.368" y="293.789" fill="#71EBFF" width="149.819" height="44.354"/>
<g>
	<path fill="#71EBFF" d="M456.753,101.708c0,1.313-4.5,2.388-10,2.388h-47.441c-5.5,0-10-1.075-10-2.388s4.5-2.388,10-2.388h47.441
		C452.253,99.32,456.753,100.395,456.753,101.708z"/>
</g>
<g>
	<path fill="#71EBFF" d="M457.616,71.48c0,2.2-4.5,4-10,4h-49c-5.5,0-10-1.8-10-4s4.5-4,10-4h49
		C453.116,67.48,457.616,69.28,457.616,71.48z"/>
</g>
<ellipse fill="#71EBFF" cx="423.741" cy="86.48" rx="51.125" ry="15"/>
<g>
	<path fill="#71EBFF" d="M447.616,65.48c0,1.1-4.5,2-10,2h-30c-5.5,0-10-0.9-10-2s4.5-2,10-2h30
		C443.116,63.48,447.616,64.38,447.616,65.48z"/>
</g>
<polygon fill="#71EBFF" points="427.616,77.48 417.616,77.48 422.616,2.48 422.616,2.48 "/>
<g>
	<path fill="#71EBFF" d="M447.616,106.016c0,1.665-4.5,3.026-10,3.026h-30c-5.5,0-10-1.362-10-3.026s4.5-3.026,10-3.026h30
		C443.116,102.99,447.616,104.352,447.616,106.016z"/>
</g>
<rect x="116.019" y="338.143" fill="#71EBFF" width="408.168" height="100"/>
<ellipse fill="#71EBFF" cx="236.868" cy="262.537" rx="36.869" ry="45.605"/>
<path fill="#71EBFF" d="M145.22,142.04c-9.343,7.652-10.462,19.422-16.645,11.873c-6.183-7.549-3.62-19.873,5.723-27.525
	c9.344-7.653,21.931-7.737,28.113-0.188C168.595,133.75,154.563,134.387,145.22,142.04z"/>
<ellipse fill="#71EBFF" cx="116.414" cy="389.762" rx="116.414" ry="95.974"/>
<ellipse fill="#71EBFF" cx="524.415" cy="395.762" rx="116.414" ry="95.974"/>
<path fill="#71EBFF" d="M190.616,297.23c0,1.242-1.007,2.25-2.25,2.25h-0.5c-1.243,0-2.25-1.008-2.25-2.25v-104.5
	c0-1.242,1.007-2.25,2.25-2.25h0.5c1.243,0,2.25,1.008,2.25,2.25V297.23z"/>
<path fill="#71EBFF" d="M239.616,208.48c0,0.553-0.448,1-1,1h-69c-0.552,0-1-0.447-1-1l0,0c0-0.553,0.448-1,1-1h69
	C239.168,207.48,239.616,207.928,239.616,208.48L239.616,208.48z"/>
<path fill="#FFFFFF" d="M447.616,79.73c0,4.28-3.47,7.75-7.75,7.75h-1.5c-4.28,0-7.75-3.47-7.75-7.75v-0.5
	c0-4.28,3.47-7.75,7.75-7.75h1.5c4.28,0,7.75,3.47,7.75,7.75V79.73z"/>
<path fill="#71EBFF" d="M238.05,207.955c-0.121,0.063-0.531,0.005-0.917-0.127l-48.231-16.607c-0.386-0.133-0.602-0.291-0.481-0.354
	l0,0c0.121-0.061,0.532-0.006,0.917,0.129l48.231,16.605C237.955,207.735,238.17,207.894,238.05,207.955L238.05,207.955z"/>
<path fill="#71EBFF" d="M206.616,208.73c0,0.967-0.161,1.75-0.359,1.75h-25.281c-0.198,0-0.359-0.783-0.359-1.75v-0.5
	c0-0.967,0.161-1.75,0.359-1.75h25.281c0.198,0,0.359,0.783,0.359,1.75V208.73z"/>
<path fill="#71EBFF" d="M169.73,208.092c-0.061-0.052,0-0.201,0.133-0.331l16.632-16.351c0.132-0.132,0.289-0.196,0.348-0.144l0,0
	c0.058,0.053,0,0.201-0.135,0.332l-16.629,16.352C169.944,208.081,169.788,208.145,169.73,208.092L169.73,208.092z"/>
<path fill="#71EBFF" d="M195.616,294.23c0,4.004-3.246,7.25-7.25,7.25h-0.5c-4.004,0-7.25-3.246-7.25-7.25v-5.5
	c0-4.004,3.246-7.25,7.25-7.25h0.5c4.004,0,7.25,3.246,7.25,7.25V294.23z"/>
<path fill="#FFFFFF" d="M150.793,133.728c-1.376,1.357-3.592,1.342-4.95-0.035l0,0c-1.357-1.377-1.342-3.593,0.035-4.95l3.561-3.511
	c1.376-1.357,3.592-1.342,4.95,0.035l0,0c1.357,1.377,1.342,3.593-0.035,4.95L150.793,133.728z"/>
<g>
	<path fill="#FF3E3E" d="M424.616,4.074c0.55,0.773,0.325,1.111-0.5,0.75s-2.175-0.361-3,0s-1.135-0.019-0.688-0.844
		s0.447-2.175,0-3s-0.138-1.205,0.688-0.844s2.175,0.361,3,0s1.05,0.061,0.5,0.938S424.066,3.301,424.616,4.074z"/>
</g>
</svg>
