<?xml version="1.0" encoding="utf-8"?>
<!-- Generator: Adobe Illustrator 15.0.0, SVG Export Plug-In  -->
<!DOCTYPE svg PUBLIC "-//W3C//DTD SVG 1.1//EN" "http://www.w3.org/Graphics/SVG/1.1/DTD/svg11.dtd" [
	<!ENTITY ns_flows "http://ns.adobe.com/Flows/1.0/">
]>
<svg version="1.1"
	 xmlns="http://www.w3.org/2000/svg" xmlns:xlink="http://www.w3.org/1999/xlink" xmlns:a="http://ns.adobe.com/AdobeSVGViewerExtensions/3.0/"
	 x="0px" y="0px" width="202px" height="692px" viewBox="0 0 202 692" overflow="visible" enable-background="new 0 0 202 692"
	 xml:space="preserve">
<defs>
</defs>
<path fill="#FF4343" d="M201.051,274.5c1.252-7.679,0-30.002,0-30.002c-1.466-18.006-7.046-30.217-16.737-36.639
	c-6.209-4.188-15.582-6.281-28.127-6.281h-17.043c-7.807,0-13.869-1.186-18.189-3.559c-7.879-4.327-12.479-12.666-13.801-25.02
	H95.114c-1.256,12.284-5.967,20.623-14.133,25.02c-4.465,2.373-10.432,3.559-17.898,3.559H41.519
	c-14.098,0-24.078,4.066-29.939,12.195c-5.862,8.131-9.456,18.371-10.782,30.725c0,0-1.793,13.552,0,30.002
	c1.326,12.354,4.919,22.594,10.782,30.725c5.861,8.129,15.841,12.195,29.938,12.195h21.564c7.467,0,13.434,1.186,17.899,3.559
	c8.165,4.396,12.876,12.735,14.132,25.02h12.04c1.321-12.354,5.922-20.692,13.8-25.02c4.32-2.373,10.384-3.559,18.19-3.559h17.043
	c12.545,0,21.918-2.094,28.127-6.281C194.005,304.717,199.585,292.506,201.051,274.5z"/>
<path fill="#F65857" d="M201.241,244.498c-1.48-18.006-7.117-30.09-16.906-36.512c-6.271-4.188-15.739-6.154-28.41-6.154h-11.573
	c5.128,1,9.375,2.59,12.724,4.826c10.025,6.577,15.797,19.018,17.312,37.458c0,0,1.296,22.829,0,30.692
	c-1.516,18.44-7.287,31.136-17.312,37.712c-3.527,2.355-9.07,3.899-14.572,4.899l15-0.254c12.671,0,20.896-2.479,27.167-6.666
	c9.789-6.422,15.091-17.891,16.571-35.896C202.506,266.924,201.241,244.498,201.241,244.498z"/>
<ellipse fill="#FFFFFF" cx="157.291" cy="253.498" rx="25.788" ry="30"/>
<ellipse fill="#FFFFFF" cx="184.084" cy="225.552" rx="8.582" ry="9.983"/>
<ellipse fill="#FFFFFF" cx="48.291" cy="253.498" rx="25.788" ry="30"/>
<path fill="#A52B2B" d="M68.099,293.238c0.771-5.997,17.206-1.16,20.26,0.047c10.515,4.156,23.864,7.848,33.99,1.278
	c3.276-2.126,6.938-5.067,11.175-4.36c3.956,0.661,4.721,4.713,3.255,8.369c-1.895,4.722-7.93,5.732-11.992,7.37
	c-4.397,1.772-7.805,4.41-12.608,5.036c-12.224,1.592-26.878,0.146-36.745-6.798c-1.528-1.075-2.834-2.38-4.595-3.357
	c-1.161-0.644-4.146-1.426-4.755-2.577L68.099,293.238z"/>
<path fill="#FF4343" d="M49.099,293.237c-3.685-4.607-1.695-13.036,3.333-15.936c4.275-2.466,13.023-5.218,17.852-2.989
	c1.812,0.837,4.17,4.676,2.781,6.867c-1.609,2.537-8.986,2.115-11.724,4.325c-2.478,2-2.867,5.711-5.585,8.011
	c-1.412,1.195-6.159,3.957-6.324,0.389L49.099,293.237z"/>
<path fill="#FF4343" d="M135.765,284.904c-0.751-2.987-6.23-2.931-7.185-6.668c-0.962-3.766,2.464-4.956,5.501-5.757
	c6.079-1.603,16.427-0.639,20.683,3.324c5.949,5.541,7.315,16.299-2.398,17.766c-5.48,0.828-5.824-1.618-10.107-4.084
	c-2.152-1.239-4.151-3.334-6.159-4.249"/>
<path fill="#FF4343" d="M201.051,101.5c1.252-7.679,0-30.002,0-30.002c-1.466-18.006-7.046-30.217-16.737-36.639
	c-6.209-4.188-15.582-6.281-28.127-6.281h-17.043c-7.807,0-13.869-1.186-18.189-3.559c-7.879-4.327-12.479-12.666-13.801-25.02
	H95.114c-1.256,12.284-5.967,20.623-14.133,25.02c-4.465,2.373-10.432,3.559-17.898,3.559H41.519
	c-14.098,0-24.078,4.066-29.939,12.195C5.717,48.904,2.123,59.145,0.797,71.498c0,0-1.793,13.552,0,30.002
	c1.326,12.354,4.919,22.594,10.782,30.725c5.861,8.129,15.841,12.195,29.938,12.195h21.564c7.467,0,13.434,1.186,17.899,3.559
	c8.165,4.396,12.876,12.735,14.132,25.02h12.04c1.321-12.354,5.922-20.692,13.8-25.02c4.32-2.373,10.384-3.559,18.19-3.559h17.043
	c12.545,0,21.918-2.094,28.127-6.281C194.005,131.717,199.585,119.506,201.051,101.5z"/>
<path fill="#F65857" d="M201.241,71.498c-1.48-18.006-7.117-30.09-16.906-36.512c-6.271-4.188-15.739-6.154-28.41-6.154h-11.573
	c5.128,1,9.375,2.59,12.724,4.826c10.025,6.577,15.797,19.018,17.312,37.458c0,0,1.296,22.829,0,30.692
	c-1.516,18.44-7.287,31.136-17.312,37.712c-3.527,2.355-9.07,3.899-14.572,4.899l15-0.254c12.671,0,20.896-2.479,27.167-6.666
	c9.789-6.422,15.091-17.891,16.571-35.896C202.506,93.924,201.241,71.498,201.241,71.498z"/>
<ellipse fill="#FFFFFF" cx="157.291" cy="80.498" rx="25.788" ry="30"/>
<ellipse fill="#FFFFFF" cx="184.084" cy="52.552" rx="8.582" ry="9.983"/>
<path fill="#999999" d="M164.444,85.498c0,2.762-2.238,5-5,5l0,0c-2.762,0-5-2.238-5-5v-14c0-2.762,2.238-5,5-5l0,0
	c2.762,0,5,2.238,5,5V85.498z"/>
<ellipse fill="#FFFFFF" cx="48.291" cy="80.498" rx="25.788" ry="30"/>
<path fill="#A52B2B" d="M63.848,110.904c-0.245,0.044-0.464-0.027-0.712,0.038c-0.405,7.99,6.161,14.047,12.156,18.656
	c11.365,8.738,24.587,5.587,37.547,3.111c6.872-1.313,12.406-4.194,18.253-7.856c3.587-2.246,8.336-6.84,8.506-11.267
	c0.247-6.417-7.979-4.056-12.312-3.675c-12.825,1.127-25.303,3.399-38.245,3.493c-4.79,0.035-9.623-0.502-14.2-1.243
	c-2.663-0.431-9.554-2.768-11.742-1.007"/>
<path fill="#999999" d="M51.601,85.498c0,2.762-2.238,5-5,5l0,0c-2.762,0-5-2.238-5-5v-14c0-2.762,2.238-5,5-5l0,0
	c2.762,0,5,2.238,5,5V85.498z"/>
<path fill="#FF4343" d="M45.524,116.881c-4.225-5.283-1.943-14.946,3.821-18.271c4.902-2.827,14.933-5.983,20.469-3.427
	c2.078,0.959,4.781,5.361,3.188,7.873c-1.845,2.909-10.304,2.425-13.441,4.959c-2.841,2.294-3.288,6.548-6.404,9.185
	c-1.619,1.37-7.062,4.537-7.251,0.446L45.524,116.881z"/>
<path fill="#FF4343" d="M135.6,107.9c-0.836-3.326-6.938-3.264-8.001-7.426c-1.071-4.194,2.744-5.52,6.127-6.411
	c6.77-1.785,18.294-0.711,23.033,3.702c6.626,6.17,8.147,18.151-2.671,19.786c-6.104,0.922-6.486-1.802-11.257-4.548
	c-2.396-1.38-4.623-3.713-6.859-4.731"/>
<path fill="#FFFFFF" d="M74.098,113.404c-0.239,6.834,3.332,9.398,9.992,9.756c5.029,0.27,6.165-3.855,5.975-8.224
	c-2.848-0.191-5.787-0.92-8.784-1.031c-2.073-0.077-5.329,0.303-6.933-0.751"/>
<path fill="#FFFFFF" d="M125.072,112.404c0.239,6.834-3.332,9.398-9.992,9.756c-5.029,0.27-6.165-3.855-5.975-8.224
	c2.848-0.191,5.787-0.92,8.784-1.031c2.073-0.077,5.329,0.303,6.933-0.751"/>
<path fill="#FFFFFF" d="M82.098,292.404c-0.239,6.834,3.332,9.398,9.992,9.756c5.029,0.27,6.007-0.628,5.816-4.997
	c-2.848-0.191-5.629-4.147-8.626-4.258c-2.073-0.077-5.329,0.303-6.933-0.751"/>
<path fill="#FFFFFF" d="M101.27,114.702c-0.089,6.336-3.211,8.572-8.845,8.644c-4.254,0.055-5.036-3.809-4.689-7.845
	c2.41-0.066,4.921-0.627,7.454-0.614c1.752,0.009,4.482,0.487,5.88-0.426"/>
<path fill="#FFFFFF" d="M115.072,113.404c0.239,6.834-3.332,9.398-9.992,9.756c-5.029,0.27-6.165-3.855-5.975-8.224
	c2.848-0.191,5.787-0.92,8.784-1.031c2.073-0.077,5.329,0.303,6.933-0.751"/>
<path fill="#FF4343" d="M201.051,447.5c1.252-7.679,0-30.002,0-30.002c-1.466-18.006-7.046-30.217-16.737-36.639
	c-6.209-4.188-15.582-6.281-28.127-6.281h-17.043c-7.807,0-13.869-1.186-18.189-3.559c-7.879-4.327-12.479-12.666-13.801-25.02
	H95.114c-1.256,12.284-5.967,20.623-14.133,25.02c-4.465,2.373-10.432,3.559-17.898,3.559H41.519
	c-14.098,0-24.078,4.066-29.939,12.195c-5.862,8.131-9.456,18.371-10.782,30.725c0,0-1.793,13.552,0,30.002
	c1.326,12.354,4.919,22.594,10.782,30.725c5.861,8.129,15.841,12.195,29.938,12.195h21.564c7.467,0,13.434,1.186,17.899,3.559
	c8.165,4.396,12.876,12.735,14.132,25.02h12.04c1.321-12.354,5.922-20.692,13.8-25.02c4.32-2.373,10.384-3.559,18.19-3.559h17.043
	c12.545,0,21.918-2.094,28.127-6.281C194.005,477.717,199.585,465.506,201.051,447.5z"/>
<path fill="#F65857" d="M201.241,417.498c-1.48-18.006-7.117-30.09-16.906-36.512c-6.271-4.188-15.739-6.154-28.41-6.154h-11.573
	c5.128,1,9.375,2.59,12.724,4.826c10.025,6.576,15.797,19.018,17.312,37.458c0,0,1.296,22.829,0,30.692
	c-1.516,18.44-7.287,31.136-17.312,37.712c-3.527,2.355-9.07,3.899-14.572,4.899l15-0.254c12.671,0,20.896-2.479,27.167-6.666
	c9.789-6.422,15.091-17.891,16.571-35.896C202.506,439.924,201.241,417.498,201.241,417.498z"/>
<ellipse fill="#FFFFFF" cx="157.291" cy="426.498" rx="25.788" ry="30"/>
<path fill="#999999" d="M164.444,433.498c0,2.762-2.238,5-5,5l0,0c-2.762,0-5-2.238-5-5v-14c0-2.762,2.238-5,5-5l0,0
	c2.762,0,5,2.238,5,5V433.498z"/>
<ellipse fill="#FFFFFF" cx="184.084" cy="398.552" rx="8.582" ry="9.983"/>
<ellipse fill="#FFFFFF" cx="48.291" cy="426.498" rx="25.788" ry="30"/>
<path fill="#999999" d="M51.601,433.498c0,2.762-2.238,5-5,5l0,0c-2.762,0-5-2.238-5-5v-14c0-2.762,2.238-5,5-5l0,0
	c2.762,0,5,2.238,5,5V433.498z"/>
<path fill="#A52B2B" d="M78.187,463.238c0.553-5.998,12.338-1.16,14.528,0.047c7.54,4.155,17.112,7.848,24.373,1.277
	c2.35-2.125,4.975-5.066,8.015-4.359c2.836,0.661,3.385,4.713,2.333,8.369c-1.358,4.723-5.687,5.732-8.6,7.369
	c-3.152,1.773-5.596,4.41-9.041,5.036c-8.766,1.592-19.273,0.146-26.35-6.798c-1.096-1.076-2.031-2.381-3.295-3.357
	c-0.832-0.645-2.973-1.426-3.409-2.576L78.187,463.238z"/>
<path fill="#FF4343" d="M59.562,461.236c-2.643-4.607-1.216-13.035,2.39-15.936c3.066-2.465,9.339-5.218,12.801-2.988
	c1.3,0.836,2.99,4.676,1.994,6.866c-1.153,2.537-6.443,2.114-8.407,4.325c-1.775,2-2.056,5.711-4.004,8.011
	c-1.013,1.195-4.417,3.957-4.535,0.39L59.562,461.236z"/>
<path fill="#FF4343" d="M132.709,454.904c-0.539-2.987-4.468-2.932-5.152-6.668c-0.689-3.766,1.767-4.957,3.945-5.758
	c4.358-1.603,11.779-0.639,14.831,3.324c4.267,5.541,5.245,16.299-1.72,17.767c-3.931,0.827-4.178-1.618-7.248-4.084
	c-1.543-1.239-2.977-3.334-4.417-4.249"/>
<path fill="#FF4343" d="M201.051,620.5c1.252-7.679,0-30.002,0-30.002c-1.466-18.006-7.046-30.217-16.737-36.639
	c-6.209-4.188-15.582-6.281-28.127-6.281h-17.043c-7.807,0-13.869-1.186-18.189-3.559c-7.879-4.327-12.479-12.666-13.801-25.02
	H95.114c-1.256,12.284-5.967,20.623-14.133,25.02c-4.465,2.373-10.432,3.559-17.898,3.559H41.519
	c-14.098,0-24.078,4.066-29.939,12.195c-5.862,8.131-9.456,18.371-10.782,30.725c0,0-1.793,13.552,0,30.002
	c1.326,12.354,4.919,22.594,10.782,30.725c5.861,8.129,15.841,12.195,29.938,12.195h21.564c7.467,0,13.434,1.186,17.899,3.559
	c8.165,4.396,12.876,12.735,14.132,25.02h12.04c1.321-12.354,5.922-20.692,13.8-25.02c4.32-2.373,10.384-3.559,18.19-3.559h17.043
	c12.545,0,21.918-2.094,28.127-6.281C194.005,650.717,199.585,638.506,201.051,620.5z"/>
<path fill="#F65857" d="M201.241,590.498c-1.48-18.006-7.117-30.09-16.906-36.512c-6.271-4.188-15.739-6.154-28.41-6.154h-11.573
	c5.128,1,9.375,2.59,12.724,4.826c10.025,6.576,15.797,19.018,17.312,37.458c0,0,1.296,22.829,0,30.692
	c-1.516,18.44-7.287,31.136-17.312,37.712c-3.527,2.355-9.07,3.899-14.572,4.899l15-0.254c12.671,0,20.896-2.479,27.167-6.666
	c9.789-6.422,15.091-17.891,16.571-35.896C202.506,612.924,201.241,590.498,201.241,590.498z"/>
<ellipse fill="#FFFFFF" cx="157.291" cy="599.498" rx="25.788" ry="30"/>
<path fill="#999999" d="M175.503,605.832c0,2.762-2.238,5-5,5l0,0c-2.762,0-5-2.238-5-5v-14c0-2.762,2.238-5,5-5l0,0
	c2.762,0,5,2.238,5,5V605.832z"/>
<ellipse fill="#FFFFFF" cx="184.084" cy="571.552" rx="8.582" ry="9.983"/>
<ellipse fill="#FFFFFF" cx="48.291" cy="599.498" rx="25.788" ry="30"/>
<path fill="#999999" d="M46.503,605.832c0,2.762-2.238,5-5,5l0,0c-2.762,0-5-2.238-5-5v-14c0-2.762,2.238-5,5-5l0,0
	c2.762,0,5,2.238,5,5V605.832z"/>
<path fill="#A52B2B" d="M102.503,643.166c-2.213,5.567-7.574-1.379-9.424-2.764c-2.131-1.597-7.728-2.748-9.934-0.521
	c-2.73,2.758-0.072,7.387,2.017,9.46c2.827,2.807,7.625,3.774,11.404,4.48c6.746,1.261,22.055,0.19,19.603-10.322
	c-0.812-3.48-4.328-4.637-7.924-4.001c-3.103,0.549-3.824,2.538-6.075,4.333"/>
<path fill="#999999" d="M154.397,260.498c0,2.762-2.238,5-5,5l0,0c-2.762,0-5-2.238-5-5v-14c0-2.762,2.238-5,5-5l0,0
	c2.762,0,5,2.238,5,5V260.498z"/>
<path fill="#999999" d="M60.276,260.498c0,2.762-2.238,5-5,5l0,0c-2.762,0-5-2.238-5-5v-14c0-2.762,2.238-5,5-5l0,0
	c2.762,0,5,2.238,5,5V260.498z"/>
</svg>
