<?xml version="1.0" encoding="utf-8"?>
<!-- Generator: Adobe Illustrator 15.0.0, SVG Export Plug-In  -->
<!DOCTYPE svg PUBLIC "-//W3C//DTD SVG 1.1//EN" "http://www.w3.org/Graphics/SVG/1.1/DTD/svg11.dtd" [
	<!ENTITY ns_flows "http://ns.adobe.com/Flows/1.0/">
]>
<svg version="1.1"
	 xmlns="http://www.w3.org/2000/svg" xmlns:xlink="http://www.w3.org/1999/xlink" xmlns:a="http://ns.adobe.com/AdobeSVGViewerExtensions/3.0/"
	 x="0px" y="0px" width="202px" height="173px" viewBox="0 0 202 173" overflow="visible" enable-background="new 0 0 202 173"
	 xml:space="preserve">
<defs>
</defs>
<path fill="#FF4343" d="M201.051,101.5c1.252-7.679,0-30.002,0-30.002c-1.466-18.006-7.046-30.217-16.737-36.639
	c-6.209-4.188-15.582-6.281-28.127-6.281h-17.043c-7.807,0-13.869-1.186-18.189-3.559c-7.879-4.327-12.479-12.666-13.801-25.02
	h-12.04c-1.256,12.284-5.967,20.623-14.132,25.02c-4.466,2.373-10.433,3.559-17.899,3.559H41.518
	c-14.098,0-24.077,4.066-29.938,12.195C5.716,48.904,2.124,59.145,0.797,71.498c0,0-1.793,13.552,0,30.002
	c1.326,12.354,4.919,22.594,10.782,30.725c5.861,8.129,15.841,12.195,29.938,12.195h21.564c7.467,0,13.434,1.186,17.899,3.559
	c8.165,4.396,12.876,12.735,14.132,25.02h12.04c1.321-12.354,5.922-20.692,13.8-25.02c4.32-2.373,10.384-3.559,18.19-3.559h17.043
	c12.545,0,21.918-2.094,28.127-6.281C194.005,131.717,199.585,119.506,201.051,101.5z"/>
<path fill="#F65857" d="M201.241,71.498c-1.48-18.006-7.117-30.09-16.906-36.512c-6.271-4.188-15.739-6.154-28.41-6.154h-11.573
	c5.128,1,9.375,2.59,12.724,4.826c10.025,6.577,15.797,19.018,17.312,37.458c0,0,1.296,22.829,0,30.692
	c-1.516,18.44-7.287,31.136-17.312,37.712c-3.527,2.355-9.07,3.899-14.572,4.899l15-0.254c12.671,0,20.896-2.479,27.167-6.666
	c9.789-6.422,15.091-17.891,16.571-35.896C202.506,93.924,201.241,71.498,201.241,71.498z"/>
<ellipse fill="#FFFFFF" cx="157.291" cy="80.498" rx="25.788" ry="30"/>
<path fill="#999999" d="M175.503,86.832c0,2.762-2.238,5-5,5l0,0c-2.762,0-5-2.238-5-5v-14c0-2.762,2.238-5,5-5l0,0
	c2.762,0,5,2.238,5,5V86.832z"/>
<ellipse fill="#FFFFFF" cx="184.084" cy="52.552" rx="8.582" ry="9.983"/>
<ellipse fill="#FFFFFF" cx="48.291" cy="80.498" rx="25.788" ry="30"/>
<path fill="#999999" d="M46.503,86.832c0,2.762-2.238,5-5,5l0,0c-2.762,0-5-2.238-5-5v-14c0-2.762,2.238-5,5-5l0,0
	c2.762,0,5,2.238,5,5V86.832z"/>
<path fill="#A52B2B" d="M102.503,124.166c-2.213,5.567-7.575-1.379-9.424-2.764c-2.131-1.597-7.728-2.748-9.934-0.521
	c-2.731,2.758-0.072,7.387,2.017,9.46c2.827,2.807,7.625,3.774,11.404,4.48c6.746,1.261,22.055,0.19,19.603-10.322
	c-0.812-3.48-4.328-4.637-7.924-4.001c-3.103,0.549-3.824,2.538-6.075,4.333"/>
</svg>
