<?xml version="1.0" encoding="utf-8"?>
<!-- Generator: Adobe Illustrator 15.0.0, SVG Export Plug-In  -->
<!DOCTYPE svg PUBLIC "-//W3C//DTD SVG 1.1//EN" "http://www.w3.org/Graphics/SVG/1.1/DTD/svg11.dtd" [
	<!ENTITY ns_flows "http://ns.adobe.com/Flows/1.0/">
]>
<svg version="1.1"
	 xmlns="http://www.w3.org/2000/svg" xmlns:xlink="http://www.w3.org/1999/xlink" xmlns:a="http://ns.adobe.com/AdobeSVGViewerExtensions/3.0/"
	 x="0px" y="0px" width="91px" height="76px" viewBox="0 0 91 76" overflow="visible" enable-background="new 0 0 91 76"
	 xml:space="preserve">
<defs>
</defs>
<polygon fill="#46A809" points="24.045,0 78.408,25.389 90.605,46.537 0,4.221 "/>
<polygon fill="#45B500" points="23.975,0.15 23.975,0.15 31.472,10.09 48.688,18.13 65.45,25.959 78.338,25.54 78.338,25.54 
	69.681,16.898 35.704,1.03 "/>
<polygon fill="#46A809" points="0,4.221 90.605,46.537 21.605,76.118 "/>
<polygon fill="#317F00" points="21.605,76.118 18.121,12.684 72.483,38.073 "/>
<polygon fill="#317F00" points="48.053,19.49 72.483,38.073 18.121,12.684 "/>
<polygon fill="#317F00" points="18.121,12.684 11.811,2.563 0,4.221 "/>
<polygon fill="#317F00" points="90.605,46.537 84.295,36.416 72.483,38.073 "/>
<polygon fill="#317F00" points="0,4.221 4.32,18.601 18.121,12.684 "/>
<polygon fill="#317F00" points="72.483,38.073 76.805,52.454 90.605,46.537 "/>
<polygon fill="#2B7000" points="21.695,75.333 27.241,19.15 61.218,35.02 "/>
<polygon fill="#46A809" points="21.922,74.997 34.489,22.536 54.082,31.688 "/>
<polygon fill="#317F00" points="40.393,35.447 54.082,31.688 34.489,22.536 "/>
<rect x="74.797" y="22.141" transform="matrix(0.1917 0.9815 -0.9815 0.1917 91.1379 -56.3793)" fill="#FFFFFF" width="10" height="10"/>
</svg>
