<?xml version="1.0" encoding="utf-8"?>
<!-- Generator: Adobe Illustrator 15.0.0, SVG Export Plug-In  -->
<!DOCTYPE svg PUBLIC "-//W3C//DTD SVG 1.1//EN" "http://www.w3.org/Graphics/SVG/1.1/DTD/svg11.dtd" [
	<!ENTITY ns_flows "http://ns.adobe.com/Flows/1.0/">
]>
<svg version="1.1"
	 xmlns="http://www.w3.org/2000/svg" xmlns:xlink="http://www.w3.org/1999/xlink" xmlns:a="http://ns.adobe.com/AdobeSVGViewerExtensions/3.0/"
	 x="0px" y="0px" width="60px" height="60px" viewBox="-5 -5 60 60" overflow="visible" enable-background="new -5 -5 60 60"
	 xml:space="preserve">
<defs>
</defs>
<path fill="#333333" d="M25,0l-6.518,6.519l5.584,5.584c1.194-0.209,2.467,0.146,3.389,1.067c0.923,0.923,1.276,2.195,1.068,3.39
	l5.265,5.265c1.327-0.422,2.838-0.109,3.891,0.944c1.504,1.504,1.504,3.942,0,5.446s-3.942,1.504-5.446,0
	c-1.053-1.053-1.366-2.563-0.944-3.892l-4.521-4.52v12.502c0.277,0.163,0.54,0.359,0.777,0.597c1.504,1.504,1.504,3.942,0,5.446
	s-3.942,1.504-5.446,0s-1.504-3.942,0-5.446c0.337-0.338,0.724-0.595,1.134-0.781V19.439c-0.444-0.188-0.861-0.461-1.224-0.823
	c-1.174-1.174-1.428-2.915-0.768-4.34l-5.259-5.258L0,25l25,25l25-25L25,0z"/>
</svg>
