<?xml version="1.0" encoding="utf-8"?>
<!-- Generator: Adobe Illustrator 15.0.0, SVG Export Plug-In  -->
<!DOCTYPE svg PUBLIC "-//W3C//DTD SVG 1.1//EN" "http://www.w3.org/Graphics/SVG/1.1/DTD/svg11.dtd" [
	<!ENTITY ns_flows "http://ns.adobe.com/Flows/1.0/">
]>
<svg version="1.1"
	 xmlns="http://www.w3.org/2000/svg" xmlns:xlink="http://www.w3.org/1999/xlink" xmlns:a="http://ns.adobe.com/AdobeSVGViewerExtensions/3.0/"
	 x="0px" y="0px" width="446px" height="208px" viewBox="28.712 254.492 446 208"
	 overflow="visible" enable-background="new 28.712 254.492 446 208" xml:space="preserve">
<defs>
</defs>
<g display="none">
	<defs>
		<rect id="SVGID_9_" width="1154" height="234"/>
	</defs>
	<clipPath id="SVGID_10_" display="inline">
		<use xlink:href="#SVGID_9_"  display="none" overflow="visible"/>
	</clipPath>
	<g clip-path="url(#SVGID_10_)">
		<path fill="#CCCCCC" d="M14.809,408.663c7.142-70.991,27.9-129.738,62.252-176.199c34.358-46.461,90.858-69.703,169.494-69.703
			h122.728c43.294,0,77.441-6.787,102.467-20.341c45.668-24.735,72.279-72.191,79.826-142.396h68.524
			c8.315,70.597,34.313,118.063,77.952,142.396c24.188,13.554,58.891,20.341,104.143,20.341h96.994
			c74.584,0,133.696,16.248,177.336,48.762c43.628,32.508,69.617,98.218,77.953,197.141"/>
	</g>
</g>
<g display="none">
	<g display="inline">
		<defs>
			<path id="SVGID_7_" d="M482,86c0-3.3,2.7-6,6-6h194c3.3,0,6,2.7,6,6v199c0,3.3-2.7,6-6,6H488c-3.3,0-6-2.7-6-6V86z"/>
		</defs>
		<clipPath id="SVGID_11_">
			<use xlink:href="#SVGID_7_"  display="none" overflow="visible"/>
		</clipPath>
		<g display="none" clip-path="url(#SVGID_11_)">
			<defs>
				<path id="SVGID_8_" d="M797.326,86.704c0-3.3-2.7-6-6-6H348.205c-3.3,0-6,2.7-6,6v201.475c0,3.3,2.7,6,6,6h443.121
					c3.3,0,6-2.7,6-6V86.704z"/>
			</defs>
			<clipPath id="SVGID_12_" display="inline">
				<use xlink:href="#SVGID_8_"  display="none" overflow="visible"/>
			</clipPath>
		</g>
	</g>
	<g display="inline">
		<defs>
			<path id="SVGID_5_" d="M482,86c0-3.3,2.7-6,6-6h194c3.3,0,6,2.7,6,6v199c0,3.3-2.7,6-6,6H488c-3.3,0-6-2.7-6-6V86z"/>
		</defs>
		<clipPath id="SVGID_13_">
			<use xlink:href="#SVGID_5_"  display="none" overflow="visible"/>
		</clipPath>
		<g display="none" clip-path="url(#SVGID_13_)">
			<defs>
				<path id="SVGID_6_" d="M797.326,86.704c0-3.3-2.7-6-6-6H348.205c-3.3,0-6,2.7-6,6v201.475c0,3.3,2.7,6,6,6h443.121
					c3.3,0,6-2.7,6-6V86.704z"/>
			</defs>
			<clipPath id="SVGID_14_" display="inline">
				<use xlink:href="#SVGID_6_"  display="none" overflow="visible"/>
			</clipPath>
			<g clip-path="url(#SVGID_14_)">
				<g>
					<path display="inline" fill="#F65857" d="M542.889,267.865c-1.74,2.804-1.061,6.791,1.509,8.861c0,0,1.904,1.533-16.509,4.18
						c-18.414,2.644-22.719-3.133-22.719-3.133c-1.972-2.646-5.417-6.795-7.654-9.221c0,0-13.03-14.129,4.068-20.752
						c17.096-6.618,21.042-6.618,27.619-10.588c6.577-3.974,32.532-14.565,11.664-21.189c-20.869-6.617-36.651-9.266-24.813-15.887
						c11.835-6.618,18.223-9.268,32.785-7.944c14.561,1.326,15.878,5.957,26.398-0.329c10.518-6.288,17.098-3.639,15.783,6.954
						c-1.319,10.589-2.633,9.267,13.149,11.917c15.781,2.644,44.718-7.944,46.032,2.644c1.313,10.59,11.836,23.213,0,21.539
						c-11.838-1.678-13.15,8.293-27.619,0c-14.468-8.296-19.728-16.239-26.305-16.239s-12.55,2.646-21.4,9.264
						c-8.85,6.624-6.216,14.568-15.424,17.215c-9.208,2.645-18.409,1.327-15.782,9.271
						C546.298,262.371,542.889,267.865,542.889,267.865z"/>
				</g>
				<g>
					<path display="inline" fill="#F65857" d="M631.42,199.624c0,0-24.99-4.242-25.796-11.94c-0.802-7.704,0.648-13.44-4.058-14.035
						c-4.705-0.596-12.063,7.975-16.638-0.867c-4.577-8.846-12.533-3.624-0.816-15.251c11.714-11.624,30.266-12.99,37.367-5.056
						c7.102,7.931,0.932,6.062,2.203,14.17c1.272,8.108-6.823,15.51,1.703,15.702c8.527,0.194,8.843,7.924,11.94,10.393"/>
				</g>
				<g>
					<path display="inline" fill="#F65857" d="M547.482,344.061c0.794-3.203,3.5-7.574,6.012-9.714c0,0,12.528-10.671-4.567-10.671
						c-17.097,0-21.043,0-22.355-6.617c-1.319-6.625,2.627-18.542,6.573-21.189c3.944-2.642,13.15,0,15.783-10.589
						c2.632-10.595,26.301-19.862,27.618-6.625c1.318,13.245,15.782,14.572,0,17.214c-15.781,2.647-27.618,3.502-13.149,8.373
						c14.467,4.872,21.045,2.222,30.249,8.843c9.205,6.617,10.518,7.94,10.518,13.237s7.892,9.271,0,11.915
						c-7.889,2.653-7.886-1.324-14.463,0c-6.577,1.327-9.209-1.319-10.522,9.271c-1.314,10.59-2.015,11.917-12.188,13.244
						c-10.172,1.319-15.434,1.319-18.062-5.301C546.298,348.835,547.482,344.061,547.482,344.061z"/>
				</g>
				<g>
					<path display="inline" fill="#F65857" d="M618.197,292.743c0,0-25.366,13.741-20.803-11.367c0,0-2.343-12.31-13.374-16.831
						c0,0-1.021-39.73,34.133-17.505c0,0,22.158,10.246,24.163,0.975c0,0,11.205,1.423,11.56,6.318
						c0.354,4.892,21.85-4.451,10.591-19.643c0,0-6.367-10.388,6.971-18.475c0,0,8.918-16.534-0.96-20.425
						c0,0,5.851-16.389,16.479-0.031c0,0,22.591,10.839,16.944,21.312c0,0-12.045,16.789,0.943,28.774c0,0-7.152,16.04-17.453,7.394
						c0,0-10.655-5.229-10.714,8.761c0,0-24.23,6.089,3.974,12.061c0,0,8.603,9.012-7.935,11.933c0,0-14.949,8.31-16.405,16.553
						c0,0,1.188,11.679-18.464,0.938c0,0-15.064,23.76-26.282,7.751C611.564,311.236,628.927,300.599,618.197,292.743z"/>
				</g>
				<g>
					<path display="inline" fill="#F65857" d="M494.792,208.76c-0.444,3.27,1.859,6.368,5.119,6.884c0,0,65.388,10.358-5.926,19.273
						c0,0-17.392,5.345-18.706,17.722c-1.314,12.38-10.396,16.837-10.396,16.837c-2.962,1.454-7.254,4.593-9.537,6.976
						c0,0-8.996,9.389-18.205-4.332c-9.207-13.719-0.004-38.173-5.263-37.202c-5.258,0.969-1.317-6.976-7.891-5.649
						c-6.573,1.326-6.573,17.216-6.573,1.326c0-15.889-3.944-21.188,9.207-21.188c13.149,0,17.095,3.972,32.877,0
						c15.782-3.97,1.185-15.336,11.772-20.906c10.587-5.571,20.378-8.993,22.716,0C496.324,197.491,494.792,208.76,494.792,208.76z"
						/>
				</g>
				<g>
					<path display="inline" fill="#F65857" d="M603.213,133.844c-3.195,0.823-5.452,4.172-5.015,7.442c0,0,0.329,2.457-14.805-8.428
						c-15.136-10.885-14.286-18.071-14.286-18.071c0.388-3.277,0.741-8.658,0.787-11.958c0,0,0.263-19.296,17.171-12.203
						c16.905,7.096,19.762,9.839,27.241,11.538c7.483,1.698,33.523,12.076,22.968-7.221c-10.557-19.293-20.156-32.179-7.053-28.741
						c13.1,3.441,19.538,5.964,29.165,17.042c9.623,11.079,7.399,15.346,19.322,18.109c11.922,2.763,14.863,9.255,6.647,16.002
						c-8.216,6.744-8.258,4.874,1.34,17.761c9.604,12.881,37.798,25.335,31.486,33.908c-6.312,8.575-7.356,25.021-14.771,15.581
						c-7.411-9.44-15.199-3.14-19.979-19.198c-4.778-16.056-3.136-25.457-7.893-30.032c-4.758-4.568-10.892-6.806-21.833-8.172
						c-10.946-1.357-14.489,6.22-22.964,1.734c-8.476-4.487-14.229-11.835-17.774-4.265
						C609.421,132.246,603.213,133.844,603.213,133.844z"/>
				</g>
				<g>
					<path display="inline" fill="#F65857" d="M456.008,193.787c0,0-22.734,11.278-27.859,5.509
						c-5.125-5.777-7.284-11.282-11.443-8.994c-4.164,2.286-5.154,13.574-14.001,9.094c-8.851-4.477-12.27,4.444-9.521-11.887
						c2.744-16.325,16.998-28.359,27.368-26.107c10.369,2.251,4.277,4.367,10.021,10.194c5.743,5.827,3.478,16.6,10.505,11.733
						c7.029-4.865,11.776,1.22,15.722,1.396"/>
				</g>
				<g>
					<path display="inline" fill="#F65857" d="M504.109,164.733c1.797-2.768,5.784-6.009,8.86-7.203c0,0,15.299-5.938-0.851-11.583
						c-16.15-5.646-19.877-6.948-18.96-13.635c0.912-6.692,8.521-16.646,13.11-17.844c4.589-1.195,12.422,4.343,18.361-4.792
						c5.937-9.142,31.316-10.082,28.247,2.861c-3.069,12.945,10.163,18.975-5.608,16.262c-15.771-2.711-27.23-5.814-15.151,3.567
						c12.082,9.379,19.159,9.049,25.697,18.34c6.538,9.291,7.35,10.975,5.625,15.977c-1.727,5.006,4.434,11.365-3.882,11.258
						c-8.32-0.101-7.02-3.855-13.664-4.776c-6.645-0.919-8.271-4.287-12.961,5.284c-4.691,9.569-5.787,10.591-15.828,8.486
						c-10.04-2.113-15.011-3.851-15.337-10.971C501.439,168.845,504.109,164.733,504.109,164.733z"/>
				</g>
				<g>
					<path display="inline" fill="#F65857" d="M457.875,110.994c0,0,28.271-5.552,16.521,17.065c0,0-1.386,12.457,7.818,20.067
						c0,0-10.725,38.247-37.754,6.527c0,0-18.146-16.396-22.791-8.14c0,0-10.282-4.703-9.179-9.483
						c1.103-4.779-22.179-2.271-15.896,15.599c0,0,3.021,11.822-12.1,15.563c0,0-13.383,13.129-5.096,19.793
						c0,0-10.413,13.906-15.75-4.888c0,0-18.383-17.096-9.904-25.41c0,0,16.446-12.441,7.571-27.762c0,0,11.552-13.186,18.846-1.854
						c0,0,8.635,8.173,12.81-5.168c0,0,24.937,1.414-0.244-12.707c0,0-5.562-11.173,11.093-9.028c0,0,16.724-3.474,20.541-10.911
						c0,0,2.306-11.51,17.912,4.615c0,0,21.384-18.199,27.384,0.438C469.655,95.31,449.941,100.29,457.875,110.994z"/>
				</g>
				<g>
					<path display="inline" fill="#F65857" d="M733.18,170.268c1.443-2.968,5.001-6.677,7.905-8.243c0,0,14.46-7.795-2.259-11.394
						c-16.718-3.595-20.577-4.426-20.487-11.175c0.086-6.753,6.418-17.577,10.827-19.336c4.405-1.756,12.859,2.767,17.632-7.036
						c4.772-9.809,29.843-13.89,28.382-0.667c-1.461,13.229,12.41,17.569-3.573,16.834c-15.982-0.731-27.734-2.388-14.598,5.421
						c13.138,7.808,20.121,6.602,27.746,15.013c7.629,8.408,8.639,9.979,7.539,15.157c-1.1,5.181,5.792,10.726-2.474,11.651
						c-8.268,0.936-7.437-2.953-14.146-3.042c-6.706-0.088-8.73-3.229-12.214,6.85c-3.484,10.083-4.445,11.231-14.668,10.386
						c-10.221-0.846-15.369-1.955-16.563-8.982C731.033,174.683,733.18,170.268,733.18,170.268z"/>
				</g>
				<g>
					<path display="inline" fill="#F65857" d="M342.43,246.373c2.744-1.834,7.687-3.232,10.984-3.107c0,0,16.381,0.623,3.758-10.982
						c-12.629-11.603-15.543-14.282-12.082-20.061c3.462-5.786,14.357-11.909,19.043-11.188c4.684,0.724,9.712,8.926,18.749,2.891
						c9.039-6.04,32.724,3.18,24.834,13.852c-7.896,10.676,1.898,21.473-11.527,12.714c-13.43-8.756-22.742-16.16-15.321-2.741
						c7.423,13.417,14.055,15.926,16.42,27.062c2.366,11.136,2.453,13.005-1.094,16.915c-3.548,3.913-0.38,12.203-7.979,8.8
						c-7.604-3.395-4.937-6.33-10.683-9.815c-5.747-3.485-5.919-7.226-13.979-0.295c-8.063,6.931-9.469,7.434-17.87,1.508
						c-8.399-5.928-12.284-9.501-9.792-16.172C338.378,249.081,342.43,246.373,342.43,246.373z"/>
				</g>
				<g>
					<path display="inline" fill="#F65857" d="M541.543,65.18c0,0-12.506,22.192-19.966,20.321
						c-7.464-1.876-12.323-5.209-14.487-0.961c-2.165,4.247,3.318,14.141-6.5,15.444c-9.822,1.305-7.667,10.617-14.514-4.443
						c-6.844-15.057-1.776-33.076,8.06-37.081c9.831-4.004,5.977,1.191,13.979,2.762c8.004,1.57,12.144,11.76,15.239,3.758
						c3.097-8,10.421-5.654,13.784-7.742"/>
				</g>
				<g>
					<path display="inline" fill="#F65857" d="M796.442,208.76c-0.444,3.27,1.859,6.368,5.118,6.884c0,0,65.386,10.358-5.926,19.273
						c0,0-17.393,5.345-18.706,17.722c-1.314,12.38-10.396,16.837-10.396,16.837c-2.963,1.454-7.255,4.593-9.538,6.976
						c0,0-8.997,9.389-18.205-4.332c-9.208-13.719-0.003-38.173-5.264-37.202c-5.259,0.969-1.316-6.976-7.892-5.649
						c-6.571,1.326-6.571,17.216-6.571,1.326c0-15.889-3.945-21.188,9.204-21.188c13.15,0,17.097,3.972,32.879,0
						c15.782-3.97,1.183-15.336,11.77-20.906c10.588-5.571,20.38-8.993,22.719,0C797.973,197.491,796.442,208.76,796.442,208.76z"/>
				</g>
			</g>
		</g>
	</g>
	<g display="inline">
		<defs>
			<path id="SVGID_2_" d="M482,86c0-3.3,2.7-6,6-6h194c3.3,0,6,2.7,6,6v199c0,3.3-2.7,6-6,6H488c-3.3,0-6-2.7-6-6V86z"/>
		</defs>
		<clipPath id="SVGID_15_">
			<use xlink:href="#SVGID_2_"  display="none" overflow="visible"/>
		</clipPath>
		<g display="none" clip-path="url(#SVGID_15_)">
			<defs>
				<path id="SVGID_4_" d="M797.326,86.704c0-3.3-2.7-6-6-6H348.205c-3.3,0-6,2.7-6,6v201.475c0,3.3,2.7,6,6,6h443.121
					c3.3,0,6-2.7,6-6V86.704z"/>
			</defs>
			<clipPath id="SVGID_16_" display="inline">
				<use xlink:href="#SVGID_4_"  display="none" overflow="visible"/>
			</clipPath>
		</g>
	</g>
</g>
<g>
	<defs>
		<rect id="SVGID_1_" x="25.181" y="252.846" width="454.984" height="212.094"/>
	</defs>
	<clipPath id="SVGID_17_">
		<use xlink:href="#SVGID_1_"  overflow="visible"/>
	</clipPath>
	<g clip-path="url(#SVGID_17_)">
		<path fill="#F65857" d="M222.642,273.925c0,0,6.575-5.263-11.833-7.892c-18.409-2.628-26.298,7.892-26.298,7.892
			s-17.091,18.419,0,24.999c17.092,6.575,21.035,6.575,27.61,10.52c6.576,3.948,32.522,14.472,11.661,21.052
			c-20.863,6.575-36.64,9.206-24.807,15.784c11.834,6.575,18.219,9.207,32.776,7.894c14.556-1.318,15.873-5.918,26.39,0.326
			c10.516,6.248,17.095,3.616,15.778-6.908c-1.318-10.521-2.631-9.208,13.146-11.841c15.777-2.626,44.705,7.894,46.019-2.626
			c1.313-10.521,11.833-23.062,0-21.4c-11.833,1.668-13.146-8.238-27.611,0c-14.463,8.243-19.721,16.134-26.297,16.134
			c-6.575,0-12.545-2.628-21.393-9.203c-8.848-6.581-6.213-14.475-15.419-17.104c-9.206-2.627-18.404-1.317-15.777-9.211
			C229.212,284.448,222.642,273.925,222.642,273.925z"/>
		<path fill="#F65857" d="M314.309,346.789c0,0-24.983,4.214-25.789,11.862c-0.802,7.653,0.647,13.354-4.056,13.944
			c-4.703,0.592-12.061-7.924-16.633,0.861c-4.576,8.789-12.529,3.601-0.817,15.152c11.71,11.549,30.258,12.906,37.357,5.023
			c7.099-7.879,0.932-6.022,2.202-14.078c1.272-8.056-6.822-15.41,1.704-15.601c8.524-0.192,8.839-7.873,11.936-10.325"/>
		<path fill="#F65857" d="M231.84,209.072c0,0,17.091,14.468,0,14.468c-17.091,0-21.037,0-22.349,6.575
			c-1.318,6.581,2.625,18.421,6.571,21.052c3.944,2.625,13.146,0,15.778,10.52c2.631,10.526,26.292,19.734,27.61,6.583
			c1.317-13.16,15.777-14.478,0-17.103c-15.778-2.631-27.61-3.479-13.146-8.319c14.464-4.841,21.039-2.207,30.241-8.785
			c9.203-6.575,10.515-7.89,10.515-13.151c0-5.263,7.889-9.211,0-11.839c-7.887-2.636-7.884,1.316-14.459,0
			c-6.575-1.318-9.207,1.311-10.519-9.21c-1.313-10.521-2.014-11.839-12.184-13.158c-10.169-1.312-15.43-1.312-18.057,5.266
			C229.212,198.544,231.84,209.072,231.84,209.072z"/>
		<path fill="#F65857" d="M301.09,254.272c0,0-25.358-13.652-20.797,11.293c0,0-2.342,12.23-13.371,16.722
			c0,0-1.021,39.475,34.124,17.393c0,0,22.152-10.18,24.156-0.969c0,0,11.201-1.413,11.556-6.277
			c0.354-4.86,21.843,4.422,10.588,19.516c0,0-6.366,10.321,6.968,18.355c0,0,8.914,16.427-0.959,20.292
			c0,0,5.847,16.283,16.474,0.03c0,0,22.584-10.769,16.939-21.174c0,0-12.043-16.68,0.942-28.588c0,0-7.15-15.937-17.449-7.345
			c0,0-10.65,5.193-10.709-8.705c0,0-24.224-6.05,3.971-11.982c0,0,8.601-8.953-7.931-11.855c0,0-14.947-8.256-16.402-16.445
			c0,0,1.187-11.604-18.458-0.933c0,0-15.061-23.606-26.274-7.7C294.459,235.899,311.815,246.469,301.09,254.272z"/>
		<path fill="#F65857" d="M176.916,331.806c0,0,71.292-11.224,0-20.082c0,0-17.388-5.31-18.701-17.606
			c-1.313-12.299-15.778-19.354-15.778-19.354s-13.143-13.633-22.348,0c-9.207,13.629-0.004,37.925-5.262,36.96
			c-5.257-0.961-1.316,6.931-7.888,5.614c-6.571-1.318-6.571-17.104-6.571-1.318s-3.944,21.051,9.202,21.051s17.09-3.946,32.868,0
			c15.778,3.944,1.184,15.237,11.768,20.771c10.585,5.535,20.373,8.935,22.711,0C179.253,348.908,176.916,331.806,176.916,331.806z"
			/>
		<path fill="#F65857" d="M280.301,410.657c0,0,1.125-8.35-14.005,2.465c-15.131,10.814-13.577,23.874-13.577,23.874
			s0.345,25.132,17.25,18.085c16.9-7.05,19.754-9.775,27.232-11.464c7.482-1.687,33.512-11.997,22.962,7.176
			c-10.555,19.167-20.152,31.971-7.052,28.554c13.097-3.419,19.533-5.925,29.157-16.932c9.619-11.008,7.397-15.246,19.315-17.992
			c11.918-2.745,14.86-9.194,6.646-15.898c-8.214-6.7-8.256-4.842,1.339-17.646c9.601-12.797,37.787-25.171,31.477-33.688
			c-6.311-8.52-7.354-24.859-14.767-15.479c-7.41,9.378-15.195,3.119-19.974,19.072c-4.776,15.953-3.134,25.293-7.89,29.838
			c-4.756,4.538-10.889,6.762-21.827,8.119c-10.943,1.35-14.483-6.179-22.957-1.723c-8.473,4.459-14.224,11.76-17.77,4.237
			C292.315,413.73,280.301,410.657,280.301,410.657z"/>
		<path fill="#F65857" d="M138.949,352.589c0,0-22.727-11.205-27.851-5.474c-5.124,5.739-7.282,11.209-11.44,8.937
			c-4.162-2.271-5.151-13.487-13.996-9.035c-8.849,4.448-12.267-4.415-9.52,11.81c2.744,16.22,16.993,28.176,27.36,25.938
			c10.365-2.236,4.276-4.339,10.017-10.128c5.741-5.79,3.477-16.492,10.502-11.656c7.026,4.832,11.772-1.212,15.717-1.388"/>
		<path fill="#F65857" d="M190.301,386.453c0,0,20.888,8.057,4.742,13.665c-16.145,5.608-19.872,6.903-18.957,13.546
			c0.912,6.65,8.521,16.54,13.108,17.729c4.587,1.188,12.418-4.314,18.354,4.762c5.936,9.082,31.307,10.017,28.239-2.843
			c-3.069-12.862,10.16-18.852-5.607-16.157c-15.766,2.694-27.222,5.776-15.146-3.544c12.077-9.318,19.152-8.99,25.688-18.222
			c6.537-9.23,7.348-10.903,5.623-15.874c-1.726-4.973,4.433-11.291-3.88-11.186c-8.316,0.101-7.019,3.831-13.661,4.746
			c-6.643,0.913-8.267,4.26-12.957-5.25c-4.69-9.507-5.785-10.521-15.824-8.431c-10.036,2.1-15.005,3.826-15.332,10.9
			C184.367,377.368,190.301,386.453,190.301,386.453z"/>
		<path fill="#F65857" d="M140.816,434.846c0,0,28.261,5.517,16.514-16.955c0,0-1.386-12.376,7.816-19.937
			c0,0-10.721-38-37.742-6.485c0,0-18.141,16.29-22.784,8.088c0,0-10.279,4.672-9.177,9.422c1.102,4.748-22.172,2.257-15.894-15.498
			c0,0,3.022-11.745-12.095-15.463c0,0-13.378-13.044-5.095-19.664c0,0-10.409-13.816-15.744,4.855c0,0-18.378,16.984-9.902,25.246
			c0,0,16.442,12.359,7.57,27.582c0,0,11.549,13.101,18.84,1.842c0,0,8.633-8.121,12.807,5.136c0,0,24.929-1.405-0.243,12.624
			c0,0-5.562,11.1,11.088,8.969c0,0,16.719,3.452,20.534,10.841c0,0,2.305,11.435,17.906-4.585c0,0,21.379,18.081,27.375-0.435
			C152.591,450.429,132.883,445.48,140.816,434.846z"/>
		<path fill="#F65857" d="M418.661,381.315c0,0,19.735,10.573,3.022,14.149c-16.713,3.571-20.571,4.397-20.481,11.102
			c0.085,6.709,6.417,17.464,10.823,19.212c4.404,1.744,12.855-2.749,17.627,6.989c4.771,9.746,29.834,13.801,28.375,0.664
			c-1.461-13.144,12.406-17.456-3.573-16.726c-15.978,0.726-27.726,2.372-14.594-5.386c13.134-7.758,20.115-6.56,27.738-14.917
			c7.627-8.354,8.637-9.913,7.537-15.058c-1.099-5.147,5.791-10.657-2.473-11.576c-8.264-0.931-7.434,2.934-14.141,3.021
			c-6.705,0.087-8.729,3.207-12.21-6.806c-3.483-10.018-4.444-11.158-14.664-10.318c-10.218,0.84-15.363,1.942-16.558,8.923
			C413.892,371.569,418.661,381.315,418.661,381.315z"/>
		<path fill="#F65857" d="M30.391,303.655c0,0,22.37-0.845,9.75,10.686c-12.625,11.528-15.538,14.189-12.078,19.93
			c3.461,5.749,14.353,11.834,19.038,11.116c4.683-0.719,9.709-8.869,18.742-2.872c9.037,6.001,32.716-3.16,24.828-13.763
			c-7.895-10.607,1.899-21.333-11.524-12.632c-13.426,8.699-22.735,16.056-15.316,2.725c7.422-13.331,14.052-15.823,16.416-26.888
			c2.366-11.063,2.452-12.921-1.094-16.806c-3.547-3.888-0.38-12.125-7.977-8.743c-7.602,3.373-4.936,6.289-10.68,9.752
			c-5.745,3.463-5.917,7.179-13.976,0.293c-8.061-6.886-9.466-7.386-17.864-1.498c-8.396,5.89-12.281,9.438-9.789,16.067
			C21.355,297.651,30.391,303.655,30.391,303.655z"/>
		<path fill="#F65857" d="M224.459,480.363c0,0-12.503-22.05-19.961-20.19c-7.462,1.864-12.32,5.175-14.482,0.956
			c-2.165-4.221,3.317-14.05-6.499-15.344c-9.819-1.298-7.666-10.549-14.51,4.414c-6.842,14.959-1.774,32.861,8.058,36.841
			c9.828,3.978,5.976-1.185,13.975-2.744c8.002-1.561,12.141-11.684,15.234-3.734c3.096,7.948,10.417,5.617,13.78,7.691"/>
		<path fill="#F65857" d="M478.474,331.806c0,0,71.292-11.224,0-20.082c0,0-17.386-5.31-18.7-17.606
			c-1.315-12.299-15.778-19.354-15.778-19.354s-13.143-13.633-22.348,0c-9.207,13.629-0.004,37.925-5.262,36.96
			c-5.257-0.961-1.317,6.931-7.889,5.614c-6.571-1.318-6.571-17.104-6.571-1.318s-3.944,21.051,9.203,21.051
			c13.146,0,17.09-3.946,32.867,0c15.778,3.944,1.183,15.237,11.768,20.771c10.585,5.535,20.373,8.935,22.71,0
			C480.812,348.908,478.474,331.806,478.474,331.806z"/>
	</g>
</g>
</svg>
