<?xml version="1.0" encoding="utf-8"?>
<!-- Generator: Adobe Illustrator 15.0.0, SVG Export Plug-In  -->
<!DOCTYPE svg PUBLIC "-//W3C//DTD SVG 1.1//EN" "http://www.w3.org/Graphics/SVG/1.1/DTD/svg11.dtd" [
	<!ENTITY ns_flows "http://ns.adobe.com/Flows/1.0/">
]>
<svg version="1.1"
	 xmlns="http://www.w3.org/2000/svg" xmlns:xlink="http://www.w3.org/1999/xlink" xmlns:a="http://ns.adobe.com/AdobeSVGViewerExtensions/3.0/"
	 x="0px" y="0px" width="40px" height="34px" viewBox="0 0 40 34" overflow="visible" enable-background="new 0 0 40 34"
	 xml:space="preserve">
<defs>
</defs>
<path fill="#FF4343" d="M39.851,20.12c0.248-1.523,0-5.948,0-5.948c-0.291-3.569-1.396-5.989-3.317-7.263
	c-1.231-0.83-3.089-1.245-5.575-1.245H27.58c-1.547,0-2.748-0.234-3.605-0.705C22.413,4.102,21.501,2.448,21.239,0h-2.386
	c-0.249,2.435-1.183,4.088-2.802,4.959c-0.885,0.471-2.067,0.705-3.548,0.705H8.229c-2.793,0-4.772,0.807-5.933,2.418
	c-1.162,1.611-1.874,3.641-2.138,6.09c0,0-0.355,2.686,0,5.948c0.263,2.447,0.976,4.477,2.138,6.09
	c1.161,1.611,3.14,2.416,5.933,2.416h4.274c1.48,0,2.663,0.236,3.548,0.705c1.618,0.873,2.553,2.525,2.802,4.959h2.386
	c0.263-2.447,1.174-4.1,2.735-4.959c0.856-0.469,2.059-0.705,3.605-0.705h3.379c2.486,0,4.344-0.414,5.575-1.244
	C38.455,26.108,39.56,23.688,39.851,20.12z"/>
<path fill="#F65857" d="M39.888,14.172c-0.293-3.569-1.41-5.964-3.351-7.237c-1.243-0.83-3.12-1.22-5.632-1.22h-2.293
	c1.016,0.198,1.857,0.514,2.521,0.957c1.987,1.303,3.131,3.77,3.432,7.424c0,0,0.257,4.526,0,6.084
	c-0.301,3.654-1.444,6.172-3.432,7.475c-0.699,0.467-1.798,0.773-2.889,0.971l2.974-0.051c2.512,0,4.142-0.49,5.385-1.32
	c1.94-1.273,2.991-3.547,3.284-7.115C40.139,18.618,39.888,14.172,39.888,14.172z"/>
<ellipse fill="#FFFFFF" cx="31.177" cy="15.956" rx="5.111" ry="5.947"/>
<path fill="#999999" d="M34.787,17.211c0,0.548-0.443,0.991-0.99,0.991l0,0c-0.548,0-0.991-0.443-0.991-0.991v-2.774
	c0-0.548,0.443-0.991,0.991-0.991l0,0c0.547,0,0.99,0.443,0.99,0.991V17.211z"/>
<ellipse fill="#FFFFFF" cx="9.218" cy="16.363" rx="5.111" ry="5.946"/>
<ellipse fill="#FFFFFF" cx="36.488" cy="10.416" rx="1.701" ry="1.979"/>
<path fill="#999999" d="M9.217,17.211c0,0.548-0.443,0.991-0.991,0.991l0,0c-0.547,0-0.99-0.443-0.99-0.991v-2.774
	c0-0.548,0.443-0.991,0.99-0.991l0,0c0.548,0,0.991,0.443,0.991,0.991V17.211z"/>
<path fill="#A52B2B" d="M20.318,24.612c-0.439,1.104-1.502-0.273-1.868-0.549c-0.423-0.316-1.532-0.545-1.97-0.104
	c-0.541,0.547-0.014,1.465,0.4,1.877c0.561,0.555,1.512,0.748,2.26,0.887c1.338,0.25,4.372,0.039,3.886-2.045
	c-0.161-0.691-0.857-0.92-1.57-0.793c-0.615,0.107-0.758,0.502-1.204,0.857"/>
</svg>
