<?xml version="1.0" encoding="utf-8"?>
<!-- Generator: Adobe Illustrator 15.0.0, SVG Export Plug-In  -->
<!DOCTYPE svg PUBLIC "-//W3C//DTD SVG 1.1//EN" "http://www.w3.org/Graphics/SVG/1.1/DTD/svg11.dtd" [
	<!ENTITY ns_flows "http://ns.adobe.com/Flows/1.0/">
]>
<svg version="1.1"
	 xmlns="http://www.w3.org/2000/svg" xmlns:xlink="http://www.w3.org/1999/xlink" xmlns:a="http://ns.adobe.com/AdobeSVGViewerExtensions/3.0/"
	 x="0px" y="0px" width="60px" height="60px" viewBox="-5 -5 60 60" overflow="visible" enable-background="new -5 -5 60 60"
	 xml:space="preserve">
<defs>
</defs>
<path fill="#333333" d="M10.01,16.734c1.561,0,2.601,0.604,3.121,1.811c0.52,1.206,0.644,3.278,0.371,6.214
	c-0.283,3.057-0.83,5.239-1.642,6.546c-0.811,1.308-2.044,1.961-3.7,1.961H5.661l1.534-16.531H10.01z M0,50h4.108l0.975-10.501
	h3.519c1.553,0,2.83-0.341,3.833-1.025c1.003-0.683,1.914-1.828,2.734-3.437c0.688-1.325,1.245-2.787,1.672-4.386
	c0.426-1.598,0.729-3.36,0.908-5.289c0.435-4.683,0.106-8.329-0.983-10.942c-1.09-2.612-2.823-3.919-5.2-3.919h-7.9L0,50z"/>
<path fill="#333333" d="M20.766,0h4.076l-0.975,10.501h3.631c2.285,0,3.86,0.836,4.729,2.504c0.867,1.67,1.127,4.374,0.78,8.113
	l-1.706,18.381h-4.14l1.621-17.477c0.185-1.988,0.116-3.345-0.204-4.067s-1.002-1.085-2.045-1.085h-3.258l-2.1,22.629h-4.075
	L20.766,0z"/>
<path fill="#333333" d="M42.075,16.734c1.561,0,2.602,0.604,3.121,1.811c0.52,1.206,0.644,3.278,0.372,6.214
	c-0.284,3.057-0.831,5.239-1.642,6.546c-0.812,1.308-2.045,1.961-3.701,1.961h-2.499l1.534-16.531H42.075z M32.065,50h4.108
	l0.975-10.501h3.519c1.553,0,2.83-0.341,3.833-1.025c1.003-0.683,1.914-1.828,2.734-3.437c0.688-1.325,1.245-2.787,1.672-4.386
	c0.426-1.598,0.729-3.36,0.908-5.289c0.435-4.683,0.106-8.329-0.983-10.942c-1.09-2.612-2.823-3.919-5.2-3.919h-7.899L32.065,50z"/>
</svg>
