<?xml version="1.0" encoding="utf-8"?>
<!-- Generator: Adobe Illustrator 15.0.0, SVG Export Plug-In  -->
<!DOCTYPE svg PUBLIC "-//W3C//DTD SVG 1.1//EN" "http://www.w3.org/Graphics/SVG/1.1/DTD/svg11.dtd" [
	<!ENTITY ns_flows "http://ns.adobe.com/Flows/1.0/">
]>
<svg version="1.1"
	 xmlns="http://www.w3.org/2000/svg" xmlns:xlink="http://www.w3.org/1999/xlink" xmlns:a="http://ns.adobe.com/AdobeSVGViewerExtensions/3.0/"
	 x="0px" y="0px" width="75px" height="77px" viewBox="0 0 75 77" overflow="visible" enable-background="new 0 0 75 77"
	 xml:space="preserve">
<defs>
</defs>
<polygon fill="#F65857" points="4.296,48.762 46.813,6.426 70.864,2.235 0,72.794 "/>
<polygon fill="#FF4A4A" points="4.413,48.88 4.413,48.88 16.323,45.252 29.787,31.846 42.897,18.793 46.931,6.544 46.931,6.544 
	35.842,11.707 9.268,38.165 "/>
<polygon fill="#F65857" points="0,72.794 70.864,2.235 74.944,77.198 "/>
<polygon fill="#FF8080" points="74.944,77.198 14.173,58.682 56.69,16.348 "/>
<polygon fill="#FF8080" points="30.847,32.908 56.69,16.348 14.173,58.682 "/>
<polygon fill="#FF8080" points="14.173,58.682 2.501,61.133 0,72.794 "/>
<polygon fill="#FF8080" points="70.864,2.235 59.191,4.686 56.69,16.348 "/>
<polygon fill="#FF8080" points="0,72.794 14.989,73.675 14.173,58.682 "/>
<polygon fill="#FF8080" points="56.69,16.348 71.681,17.229 70.864,2.235 "/>
<polygon fill="#FF8F8F" points="74.238,76.843 23.379,52.339 49.954,25.879 "/>
<polygon fill="#F65857" points="74,76.515 29.048,46.693 44.373,31.436 "/>
<polygon fill="#FF8080" points="43.201,45.584 44.373,31.436 29.048,46.693 "/>
<rect x="43.935" y="0.724" transform="matrix(0.9876 0.1571 -0.1571 0.9876 1.5074 -7.6185)" fill="#FFFFFF" width="9.999" height="10"/>
</svg>
