<?xml version="1.0" encoding="utf-8"?>
<!-- Generator: Adobe Illustrator 15.0.0, SVG Export Plug-In  -->
<!DOCTYPE svg PUBLIC "-//W3C//DTD SVG 1.1//EN" "http://www.w3.org/Graphics/SVG/1.1/DTD/svg11.dtd" [
	<!ENTITY ns_flows "http://ns.adobe.com/Flows/1.0/">
]>
<svg version="1.1"
	 xmlns="http://www.w3.org/2000/svg" xmlns:xlink="http://www.w3.org/1999/xlink" xmlns:a="http://ns.adobe.com/AdobeSVGViewerExtensions/3.0/"
	 x="0px" y="0px" width="61px" height="59px" viewBox="0 0 61 59" overflow="visible" enable-background="new 0 0 61 59"
	 xml:space="preserve">
<defs>
</defs>
<polygon fill="#09A7A8" points="26.533,4.953 55.562,40.137 57.029,58.638 8.647,0 "/>
<polygon fill="#00B5B5" points="26.436,5.035 26.436,5.035 28.338,14.307 37.529,25.448 46.479,36.296 55.465,40.217 55.465,40.217 
	52.344,31.458 34.2,9.469 "/>
<polygon fill="#09A7A8" points="8.647,0 57.029,58.638 0,56.413 "/>
<polygon fill="#007F7F" points="0,56.413 18.324,11.727 47.354,46.909 "/>
<polygon fill="#007F7F" points="36.649,26.174 47.354,46.909 18.324,11.727 "/>
<polygon fill="#007F7F" points="18.324,11.727 17.297,2.718 8.647,0 "/>
<polygon fill="#007F7F" points="57.029,58.638 56.003,49.629 47.354,46.909 "/>
<polygon fill="#007F7F" points="8.647,0 6.918,11.281 18.324,11.727 "/>
<polygon fill="#007F7F" points="47.354,46.909 45.623,58.192 57.029,58.638 "/>
<polygon fill="#007070" points="0.319,55.903 22.473,19.146 40.615,41.134 "/>
<polygon fill="#09A7A8" points="0.584,55.746 26.344,23.836 36.806,36.517 "/>
<polygon fill="#007F7F" points="26.18,34.627 36.806,36.517 26.344,23.836 "/>
<rect x="52.141" y="37.993" transform="matrix(-0.2487 0.9686 -0.9686 -0.2487 110.3342 -2.0002)" fill="#FFFFFF" width="7.603" height="7.601"/>
</svg>
