<?xml version="1.0" encoding="utf-8"?>
<!-- Generator: Adobe Illustrator 15.0.0, SVG Export Plug-In  -->
<!DOCTYPE svg PUBLIC "-//W3C//DTD SVG 1.1//EN" "http://www.w3.org/Graphics/SVG/1.1/DTD/svg11.dtd" [
	<!ENTITY ns_flows "http://ns.adobe.com/Flows/1.0/">
]>
<svg version="1.1"
	 xmlns="http://www.w3.org/2000/svg" xmlns:xlink="http://www.w3.org/1999/xlink" xmlns:a="http://ns.adobe.com/AdobeSVGViewerExtensions/3.0/"
	 x="0px" y="0px" width="64px" height="64px" viewBox="-8.63 -4.246 64 64"
	 overflow="visible" enable-background="new -8.63 -4.246 64 64" xml:space="preserve">
<defs>
</defs>
<g id="XMLID_4_" display="none">
	<g display="inline">
		<path fill="#1A1A1A" d="M48.368,19.09l-1.59,9.16h-10.41v28h-12v-28h-5.78v-9.16h5.78v-5.95c0-8.08,3.49-12.89,12.99-12.89h10.96
			v9.91h-8.95c-2.66,0-2.99,1.38-2.99,3.97l-0.01,4.96H48.368z"/>
	</g>
	<g display="inline">
	</g>
</g>
<path display="none" d="M14.372,47.448h-8v-28h8V47.448z M10.372,15.448c-2.209,0-4-1.791-4-4s1.791-4,4-4s4,1.791,4,4
	S12.581,15.448,10.372,15.448z M42.372,47.448h-8v-16c0-2.209-1.791-4-4-4s-4,1.791-4,4v16h-8v-28h8v4.967
	c1.65-2.266,4.172-4.967,7-4.967c4.971,0,9,4.477,9,10V47.448z"/>
<g id="XMLID_2_">
	<g>
		<path d="M46.28,18.193c0,14.14-10.58,30.45-29.92,30.45c-5.94,0-11.46-1.78-16.11-4.811c0.82,0.101,1.65,0.15,2.5,0.15
			c4.93,0,9.46-1.71,13.06-4.58c-4.6-0.09-8.48-3.181-9.82-7.431c0.64,0.12,1.3,0.19,1.98,0.19c0.96,0,1.88-0.13,2.77-0.38
			c-4.81-0.98-8.44-5.3-8.44-10.49c0-0.04,0-0.09,0-0.13c1.42,0.8,3.04,1.28,4.77,1.34c-2.82-1.92-4.68-5.2-4.68-8.91
			c0-1.96,0.52-3.8,1.42-5.38c5.19,6.47,12.94,10.73,21.68,11.18c-0.18-0.78-0.28-1.6-0.28-2.44c0-5.91,4.71-10.7,10.521-10.7
			c3.02,0,5.75,1.3,7.67,3.38c2.399-0.48,4.649-1.37,6.68-2.59c-0.79,2.49-2.45,4.59-4.62,5.92c2.12-0.26,4.15-0.84,6.03-1.69
			c-1.4,2.15-3.19,4.03-5.24,5.54C46.271,17.273,46.28,17.733,46.28,18.193z"/>
	</g>
	<g>
	</g>
</g>
</svg>
