<?xml version="1.0" encoding="utf-8"?>
<!-- Generator: Adobe Illustrator 15.0.0, SVG Export Plug-In  -->
<!DOCTYPE svg PUBLIC "-//W3C//DTD SVG 1.1//EN" "http://www.w3.org/Graphics/SVG/1.1/DTD/svg11.dtd" [
	<!ENTITY ns_flows "http://ns.adobe.com/Flows/1.0/">
]>
<svg version="1.1"
	 xmlns="http://www.w3.org/2000/svg" xmlns:xlink="http://www.w3.org/1999/xlink" xmlns:a="http://ns.adobe.com/AdobeSVGViewerExtensions/3.0/"
	 x="0px" y="0px" width="533px" height="65px" viewBox="3.112 4.176 533 65"
	 overflow="visible" enable-background="new 3.112 4.176 533 65" xml:space="preserve">
<defs>
</defs>
<path fill="#22FF86" d="M537.06,0c0,0-1.369,35.955-14.909,42.615c-13.538,6.656-17.699,9.507-26.614,15.206
	c-8.917,5.701-4.725,15.151-35.106,8.608c-30.384-6.54-33.364-7.479-44.09-11.237c-10.729-3.753-13.723-10.368-28.587-1.814
	c-14.86,8.554-23.76,20.877-38.682,7.672c-14.92-13.206-14.917-12.26-24.445-13.181c-9.529-0.921-8.941-3.759-19.056-0.896
	c-10.114,2.864,19.064,3.734-19.629,7.62c-38.692,3.889-44.002,21.876-56.538,9.611c-12.537-12.264-32.752-1.804-41.115-11.243
	c-8.36-9.438-22.664-15.077-34.56-10.313C141.833,47.41,141.87,61.6,123.405,58.811c-18.465-2.791-17.857,1.939-26.213-5.607
	c-8.356-7.546-9.962-17.95-26.455-23.582c-16.491-5.632-22.436-1.833-23.052-9.399c-0.615-7.566-5.386-10.391-12.529-9.427
	c-7.142,0.965-17.269-0.899-24.421-3.719C3.582,4.256,0,0.481,0,0.481L537.06,0z"/>
</svg>
