<?xml version="1.0" encoding="utf-8"?>
<!-- Generator: Adobe Illustrator 15.0.0, SVG Export Plug-In  -->
<!DOCTYPE svg PUBLIC "-//W3C//DTD SVG 1.1//EN" "http://www.w3.org/Graphics/SVG/1.1/DTD/svg11.dtd" [
	<!ENTITY ns_flows "http://ns.adobe.com/Flows/1.0/">
]>
<svg version="1.1"
	 xmlns="http://www.w3.org/2000/svg" xmlns:xlink="http://www.w3.org/1999/xlink" xmlns:a="http://ns.adobe.com/AdobeSVGViewerExtensions/3.0/"
	 x="0px" y="0px" width="60px" height="60px" viewBox="-5 -5 60 60" overflow="visible" enable-background="new -5 -5 60 60"
	 xml:space="preserve">
<defs>
</defs>
<path fill="#333333" d="M25,0C11.216,0,0,11.215,0,24.999C0,38.784,11.216,50,25,50c13.785,0,25-11.216,25-25.001
	C50,11.215,38.785,0,25,0 M2.523,24.999c0-3.259,0.699-6.352,1.946-9.147l10.722,29.376C7.693,41.585,2.523,33.896,2.523,24.999
	 M25,47.478c-2.206,0-4.335-0.323-6.35-0.916l6.745-19.596l6.908,18.928c0.045,0.111,0.101,0.214,0.161,0.31
	C30.128,47.026,27.618,47.478,25,47.478 M28.098,14.461c1.354-0.071,2.573-0.214,2.573-0.214c1.211-0.143,1.067-1.923-0.144-1.852
	c0,0-3.641,0.285-5.991,0.285c-2.209,0-5.92-0.285-5.92-0.285c-1.212-0.071-1.354,1.78-0.143,1.852c0,0,1.146,0.143,2.358,0.214
	l3.501,9.595l-4.919,14.752l-8.186-24.347c1.354-0.071,2.572-0.214,2.572-0.214c1.211-0.143,1.067-1.923-0.144-1.852
	c0,0-3.64,0.285-5.99,0.285c-0.422,0-0.919-0.01-1.446-0.027C10.239,6.552,17.147,2.522,25,2.522c5.852,0,11.18,2.237,15.179,5.901
	c-0.097-0.006-0.191-0.018-0.291-0.018c-2.208,0-3.774,1.923-3.774,3.989c0,1.852,1.068,3.419,2.207,5.271
	c0.855,1.497,1.854,3.42,1.854,6.198c0,1.924-0.74,4.156-1.71,7.267l-2.243,7.49L28.098,14.461z M44.724,14.216
	c1.755,3.201,2.753,6.875,2.753,10.783c0,8.293-4.494,15.532-11.176,19.428l6.865-19.849c1.282-3.207,1.709-5.771,1.709-8.051
	C44.875,15.7,44.82,14.932,44.724,14.216"/>
</svg>
